<svg id="svg" version="1.1" xmlns="http://www.w3.org/2000/svg" xmlns:xlink="http://www.w3.org/1999/xlink" width="400" height="400" viewBox="0, 0, 400,400"><g id="svgg"><path id="path0" d="M116.952 65.781 C 116.488 66.990,117.595 67.592,118.800 66.786 C 119.319 66.439,119.296 66.305,118.624 65.792 C 117.647 65.048,117.235 65.045,116.952 65.781 M310.600 148.455 C 302.531 149.025,291.821 153.134,287.075 157.479 C 273.085 170.290,269.466 184.646,276.106 201.000 C 279.230 208.695,287.074 218.059,292.896 221.044 C 293.613 221.412,294.979 222.245,295.931 222.897 C 307.254 230.643,331.232 230.496,341.800 222.614 C 342.460 222.121,343.558 221.431,344.240 221.080 C 347.361 219.473,353.564 212.459,355.790 208.021 C 370.114 179.458,344.761 146.039,310.600 148.455 M318.973 191.163 C 332.987 198.269,332.077 216.325,317.474 220.870 C 306.441 224.304,294.460 215.708,294.407 204.320 C 294.351 192.479,307.587 185.390,318.973 191.163 M171.054 196.829 C 167.941 199.278,166.641 205.200,169.216 205.200 C 172.358 205.200,175.487 198.744,173.371 196.629 C 172.557 195.814,172.319 195.834,171.054 196.829 M310.254 197.629 C 307.149 200.071,311.443 204.863,315.382 203.352 C 315.738 203.215,316.293 202.594,316.615 201.971 C 318.403 198.513,313.439 195.124,310.254 197.629 M28.928 202.099 C 28.025 203.034,27.009 204.353,26.669 205.030 C 26.330 205.706,25.545 206.816,24.926 207.496 C 22.042 210.664,20.315 212.906,19.788 214.166 C 16.019 223.188,23.347 230.388,27.731 221.972 C 29.004 219.529,30.094 218.004,32.879 214.769 C 35.072 212.222,35.161 211.648,33.853 208.488 C 33.333 207.230,32.585 205.120,32.193 203.800 C 31.130 200.229,30.865 200.090,28.928 202.099 M212.000 200.652 C 183.754 206.234,179.055 240.439,204.600 254.514 C 222.024 264.115,242.545 257.911,249.302 241.000 C 255.570 225.316,246.468 208.226,228.600 202.125 C 224.633 200.771,215.499 199.960,212.000 200.652 M227.328 229.702 C 233.520 231.845,237.242 239.265,235.201 245.398 C 231.273 257.202,213.446 255.806,210.152 243.436 C 207.566 233.728,217.051 226.144,227.328 229.702 M221.862 235.531 C 219.838 237.768,223.463 240.937,225.600 238.800 C 226.040 238.360,226.400 237.640,226.400 237.200 C 226.400 235.186,223.229 234.020,221.862 235.531 M379.200 250.000 C 378.332 250.560,371.022 252.800,370.061 252.800 C 368.628 252.800,368.731 253.498,370.661 256.885 C 372.881 260.778,373.880 262.000,374.843 262.000 C 375.839 262.000,381.088 259.842,382.266 258.948 C 385.692 256.349,382.734 247.718,379.200 250.000 M338.156 252.019 C 336.980 252.456,336.669 253.541,337.400 254.656 C 338.117 255.751,339.641 255.902,340.571 254.971 C 342.066 253.477,340.239 251.244,338.156 252.019 M300.770 271.591 C 299.984 272.007,297.874 272.722,296.081 273.179 C 290.070 274.714,290.137 274.634,291.985 278.046 C 293.873 281.532,296.719 283.600,299.628 283.600 C 305.399 283.600,306.470 281.781,304.624 275.109 C 303.272 270.222,303.305 270.251,300.770 271.591 M220.100 285.465 C 219.463 285.722,219.451 287.291,220.080 287.920 C 221.093 288.933,224.000 288.102,224.000 286.800 C 224.000 285.633,221.665 284.833,220.100 285.465 M218.131 314.632 C 215.398 317.366,218.255 325.759,223.406 330.125 C 226.142 332.443,232.440 336.109,235.879 337.385 C 236.716 337.695,238.700 338.491,240.290 339.153 C 241.879 339.816,244.309 340.474,245.690 340.617 C 247.070 340.759,249.805 341.241,251.767 341.687 C 259.108 343.356,263.594 341.390,263.599 336.500 C 263.601 333.831,262.859 333.366,258.162 333.092 C 255.257 332.922,253.453 332.575,251.400 331.792 C 249.860 331.205,247.203 330.229,245.494 329.624 C 242.299 328.491,238.564 326.175,234.005 322.501 C 232.572 321.346,230.500 319.678,229.400 318.795 C 222.971 313.632,220.167 312.596,218.131 314.632 " stroke="none" fill="#f1eee7" fill-rule="evenodd"></path><path id="path1" d="M112.540 53.203 C 109.760 54.009,109.398 54.190,107.710 55.631 C 106.307 56.829,105.600 58.012,105.600 59.161 C 105.600 59.609,105.221 60.702,104.758 61.591 C 104.058 62.934,103.940 63.746,104.061 66.403 C 104.176 68.937,104.090 69.600,103.649 69.600 C 103.343 69.600,100.891 70.680,98.200 72.000 C 95.509 73.320,93.033 74.400,92.698 74.400 C 92.363 74.400,90.404 75.278,88.344 76.351 C 78.949 81.248,77.360 82.000,76.412 82.002 C 74.505 82.006,72.443 82.826,71.322 84.026 C 70.705 84.686,69.249 85.711,68.087 86.303 C 66.925 86.896,65.698 87.801,65.361 88.315 C 65.024 88.830,63.962 89.588,63.000 90.000 C 62.038 90.412,60.955 91.202,60.593 91.755 C 60.230 92.308,59.131 93.149,58.150 93.624 C 55.519 94.898,48.310 101.716,46.976 104.193 C 46.606 104.879,45.798 105.731,45.180 106.085 C 44.562 106.440,43.750 107.331,43.375 108.065 C 43.000 108.799,41.727 110.357,40.546 111.526 C 39.366 112.695,38.397 113.865,38.392 114.126 C 38.388 114.387,37.764 115.312,37.005 116.181 C 36.058 117.267,35.540 118.333,35.354 119.581 C 35.179 120.759,34.623 121.964,33.777 123.000 C 33.059 123.880,32.338 125.317,32.174 126.192 C 31.995 127.150,31.355 128.337,30.568 129.171 C 29.848 129.934,29.149 131.145,29.015 131.862 C 28.880 132.579,28.508 133.669,28.188 134.283 C 27.867 134.897,27.604 135.708,27.602 136.085 C 27.601 136.462,27.240 137.684,26.800 138.800 C 26.360 139.916,26.000 141.372,26.000 142.035 C 26.000 142.697,25.751 143.726,25.446 144.320 C 25.141 144.914,24.678 147.626,24.418 150.347 C 24.157 153.068,23.767 155.762,23.549 156.333 C 23.206 157.236,23.357 167.094,23.799 172.600 C 24.211 177.729,24.891 182.216,25.408 183.215 C 26.732 185.776,26.415 186.386,20.700 192.240 C 17.785 195.226,15.235 197.968,15.033 198.334 C 14.832 198.701,13.797 199.886,12.733 200.968 C 11.670 202.050,10.800 203.097,10.800 203.293 C 10.800 203.633,8.756 207.933,7.992 209.200 C 5.894 212.680,4.378 219.239,5.183 221.356 C 5.412 221.959,5.600 222.917,5.600 223.486 C 5.600 224.055,6.320 225.769,7.200 227.295 C 8.080 228.821,8.800 230.203,8.800 230.365 C 8.800 230.528,9.250 231.083,9.800 231.600 C 10.350 232.117,10.800 232.712,10.800 232.923 C 10.800 234.074,15.454 236.798,17.426 236.803 C 18.072 236.804,19.140 237.163,19.800 237.600 C 21.544 238.755,29.335 238.771,31.521 237.624 C 32.334 237.197,33.572 236.640,34.272 236.387 C 35.576 235.915,36.800 234.027,36.800 232.489 C 36.800 232.054,37.058 231.483,37.374 231.221 C 37.690 230.959,38.061 230.172,38.198 229.472 C 38.760 226.601,40.000 225.591,40.000 228.005 C 40.000 229.257,40.745 231.200,41.225 231.200 C 41.388 231.200,41.720 231.695,41.962 232.300 C 42.204 232.905,42.717 233.879,43.101 234.465 C 44.882 237.178,46.318 239.911,46.572 241.072 C 46.726 241.772,47.110 242.559,47.426 242.821 C 47.742 243.083,48.000 243.526,48.000 243.804 C 48.000 244.082,48.599 245.185,49.331 246.255 C 50.062 247.325,51.226 249.234,51.916 250.498 C 52.606 251.762,54.078 253.675,55.186 254.749 C 56.294 255.822,57.200 256.986,57.200 257.335 C 57.200 257.683,57.999 258.949,58.975 260.148 C 59.951 261.346,61.221 263.257,61.797 264.395 C 62.382 265.548,63.358 266.757,64.002 267.127 C 64.638 267.492,65.338 268.185,65.557 268.666 C 65.777 269.148,66.769 270.140,67.763 270.871 C 68.756 271.602,69.580 272.380,69.593 272.600 C 69.644 273.453,72.918 278.106,73.591 278.282 C 73.981 278.384,74.534 278.902,74.818 279.434 C 75.102 279.965,75.459 280.400,75.611 280.400 C 75.763 280.400,76.705 281.120,77.705 282.000 C 78.705 282.880,79.699 283.600,79.915 283.600 C 80.131 283.600,80.630 284.095,81.024 284.700 C 82.133 286.404,88.371 292.329,90.600 293.796 C 91.700 294.520,93.047 295.593,93.593 296.181 C 94.139 296.769,95.219 297.630,95.993 298.094 C 96.767 298.558,98.930 300.316,100.800 302.001 C 104.026 304.907,109.310 308.400,110.481 308.400 C 111.105 308.400,112.403 309.305,116.254 312.424 C 120.381 315.766,123.371 317.615,125.073 317.875 C 126.753 318.133,128.399 318.922,130.131 320.300 C 130.753 320.795,131.530 321.200,131.859 321.200 C 132.187 321.200,133.208 321.716,134.128 322.346 C 136.293 323.831,140.374 326.000,141.001 326.000 C 141.270 326.000,142.154 326.528,142.966 327.173 C 143.777 327.818,144.996 328.467,145.674 328.616 C 146.352 328.765,147.648 329.224,148.554 329.635 C 149.459 330.046,150.745 330.386,151.411 330.391 C 152.077 330.396,152.977 330.646,153.411 330.946 C 153.845 331.246,154.650 331.620,155.200 331.777 C 155.750 331.933,156.920 332.387,157.800 332.786 C 160.429 333.977,165.309 335.545,169.600 336.576 C 170.810 336.867,172.469 337.397,173.287 337.753 C 174.105 338.109,175.169 338.400,175.652 338.400 C 176.135 338.400,177.446 338.663,178.565 338.985 C 185.667 341.025,187.464 341.320,193.800 341.488 C 198.221 341.604,200.695 341.846,201.800 342.268 C 202.991 342.723,205.702 342.933,212.400 343.089 C 220.921 343.288,221.464 343.346,222.600 344.193 C 224.301 345.461,228.640 347.600,229.510 347.600 C 229.913 347.600,231.081 348.131,232.105 348.781 C 234.672 350.408,238.573 351.868,241.200 352.184 C 242.410 352.329,243.760 352.680,244.200 352.964 C 244.640 353.248,245.990 353.697,247.200 353.963 C 248.410 354.228,250.168 354.615,251.106 354.823 C 254.334 355.537,261.857 355.297,263.521 354.426 C 264.334 354.001,266.084 353.159,267.409 352.555 C 268.798 351.922,270.237 350.906,270.809 350.157 C 271.354 349.442,272.560 347.868,273.490 346.659 C 274.419 345.450,275.542 343.510,275.984 342.346 C 276.784 340.240,276.795 339.810,276.196 334.113 L 276.019 332.426 277.709 332.006 C 282.723 330.760,285.466 329.855,286.020 329.263 C 286.827 328.399,287.874 327.728,289.600 326.967 C 290.370 326.627,291.900 325.927,293.000 325.411 C 294.100 324.895,296.392 323.819,298.094 323.021 C 299.796 322.222,301.373 321.223,301.600 320.801 C 301.826 320.378,302.773 319.671,303.705 319.229 C 307.520 317.420,312.217 314.714,312.538 314.140 C 312.726 313.803,313.380 313.318,313.990 313.061 C 315.260 312.527,318.476 309.667,319.411 308.239 C 319.758 307.709,320.528 307.158,321.121 307.013 C 322.385 306.704,324.898 305.114,326.600 303.546 C 329.576 300.804,331.082 299.256,332.149 297.843 C 332.781 297.005,333.779 296.113,334.367 295.860 C 334.955 295.607,335.760 295.130,336.156 294.800 C 339.091 292.355,340.757 290.624,340.962 289.808 C 341.094 289.283,341.757 288.458,342.437 287.974 C 343.116 287.490,344.198 286.368,344.841 285.480 C 345.485 284.591,346.504 283.565,347.106 283.199 C 347.708 282.832,348.695 281.783,349.300 280.866 C 349.905 279.950,350.874 278.480,351.454 277.600 L 352.509 276.000 356.838 276.000 L 361.166 276.000 362.156 277.700 C 362.700 278.635,363.272 279.940,363.426 280.600 C 363.581 281.260,363.940 282.070,364.224 282.400 C 364.508 282.730,365.270 283.990,365.919 285.200 C 369.547 291.972,370.718 293.777,374.013 297.679 C 375.401 299.323,377.977 299.636,380.314 298.444 C 381.224 297.980,382.221 297.600,382.530 297.600 C 382.839 297.600,383.521 297.267,384.046 296.861 C 384.571 296.455,385.453 296.012,386.006 295.877 C 390.374 294.813,391.035 289.105,387.434 283.544 C 384.040 278.303,383.688 277.709,383.389 276.725 C 383.234 276.216,382.796 275.440,382.414 275.000 C 381.359 273.785,381.110 272.800,381.858 272.800 C 382.206 272.800,383.146 272.452,383.946 272.028 C 384.745 271.603,386.052 271.149,386.849 271.019 C 387.948 270.840,388.721 270.290,390.049 268.746 C 391.012 267.625,392.661 265.760,393.713 264.602 C 397.297 260.655,397.539 251.802,394.184 247.406 C 393.423 246.409,392.800 245.347,392.800 245.046 C 392.800 244.744,392.520 244.265,392.177 243.981 C 391.834 243.696,391.317 242.896,391.027 242.203 C 390.460 240.846,387.170 238.400,385.912 238.400 C 385.498 238.400,384.610 238.115,383.938 237.768 C 381.857 236.692,378.086 237.180,373.600 239.106 C 368.176 241.434,365.819 241.166,367.400 238.400 C 367.714 237.850,367.978 236.477,367.986 235.348 C 367.999 233.418,368.104 233.212,369.743 231.868 C 370.702 231.082,371.729 229.845,372.026 229.120 C 372.323 228.394,373.509 226.900,374.664 225.800 C 376.332 224.210,376.817 223.455,377.029 222.118 C 377.176 221.192,377.891 219.532,378.618 218.429 C 379.344 217.326,380.056 216.053,380.200 215.600 C 380.344 215.147,381.077 213.842,381.829 212.700 C 382.581 211.557,383.302 209.988,383.430 209.211 C 383.559 208.435,383.895 207.170,384.178 206.400 C 384.461 205.630,384.814 204.280,384.962 203.400 C 385.111 202.520,385.397 201.350,385.597 200.800 C 386.752 197.634,386.661 184.462,385.462 181.200 C 385.340 180.870,385.160 179.340,385.060 177.800 C 384.875 174.940,384.544 173.600,384.021 173.600 C 383.859 173.600,383.511 172.655,383.246 171.500 C 382.565 168.526,380.575 164.675,379.310 163.880 C 379.029 163.704,378.800 163.233,378.800 162.834 C 378.800 162.435,378.440 161.650,378.000 161.091 C 377.560 160.531,377.200 159.741,377.200 159.334 C 377.200 157.725,372.305 150.006,370.761 149.179 C 370.344 148.956,369.635 148.052,369.185 147.171 C 368.735 146.289,367.925 145.366,367.384 145.120 C 366.843 144.873,366.400 144.521,366.400 144.337 C 366.400 143.654,363.405 140.717,361.954 139.976 C 361.128 139.555,360.175 138.814,359.836 138.329 C 359.496 137.845,358.239 136.897,357.042 136.224 C 355.845 135.551,353.726 134.149,352.333 133.108 C 350.940 132.068,349.203 130.776,348.473 130.237 C 347.534 129.544,346.363 129.175,344.473 128.975 C 342.462 128.762,341.367 128.395,340.050 127.493 C 338.358 126.333,337.879 126.151,334.000 125.192 C 333.010 124.947,331.390 124.475,330.400 124.142 C 327.414 123.139,325.553 122.836,322.280 122.817 C 320.241 122.806,318.734 122.580,317.930 122.164 C 316.978 121.671,315.739 121.556,312.450 121.652 C 307.624 121.793,307.200 121.649,307.200 119.874 C 307.200 115.530,299.958 108.093,294.882 107.224 C 293.847 107.047,292.151 106.663,291.114 106.372 C 289.168 105.825,285.776 106.715,283.989 108.241 C 283.653 108.528,282.303 109.249,280.989 109.843 C 279.464 110.534,277.759 111.779,276.272 113.288 L 273.944 115.653 271.472 114.796 C 270.112 114.325,268.190 113.702,267.200 113.413 C 266.210 113.123,264.950 112.703,264.400 112.480 C 261.920 111.472,258.030 110.400,256.852 110.400 C 256.142 110.400,255.020 110.120,254.359 109.779 C 253.698 109.437,252.222 109.052,251.078 108.923 C 249.935 108.794,248.480 108.426,247.844 108.105 C 247.208 107.784,245.228 107.364,243.444 107.172 C 241.660 106.979,239.210 106.622,238.000 106.378 C 236.790 106.134,234.510 105.810,232.933 105.659 C 231.093 105.483,229.793 105.136,229.302 104.692 C 228.881 104.311,228.246 104.000,227.890 104.000 C 226.988 104.000,223.604 102.152,222.400 101.003 C 221.850 100.477,220.140 99.465,218.600 98.752 C 217.060 98.039,214.990 96.745,214.000 95.875 C 213.010 95.006,211.602 94.040,210.871 93.730 C 210.140 93.419,208.645 92.535,207.549 91.764 C 206.453 90.994,205.114 90.195,204.572 89.990 C 203.302 89.506,201.332 88.088,200.029 86.718 C 199.463 86.123,197.200 84.708,195.000 83.574 C 192.800 82.440,189.994 80.733,188.764 79.780 C 187.534 78.827,186.009 77.917,185.376 77.758 C 183.816 77.367,181.710 76.123,179.899 74.525 C 179.073 73.796,178.060 73.200,177.648 73.200 C 177.235 73.200,176.682 72.939,176.417 72.620 C 176.152 72.302,175.275 71.829,174.468 71.570 C 173.661 71.311,172.707 70.844,172.350 70.532 C 171.992 70.221,171.002 69.871,170.150 69.756 C 169.297 69.640,167.790 69.211,166.800 68.803 C 165.810 68.394,163.920 67.666,162.600 67.184 C 161.280 66.702,159.659 66.083,158.998 65.807 C 158.338 65.532,157.170 65.169,156.404 65.001 C 155.638 64.833,154.627 64.443,154.156 64.135 C 153.686 63.826,152.333 63.469,151.151 63.340 C 149.968 63.210,148.563 62.831,148.028 62.496 C 147.268 62.020,145.440 61.863,139.639 61.776 C 134.230 61.695,132.178 61.533,132.059 61.176 C 131.579 59.737,128.895 57.574,125.518 55.906 C 117.647 52.016,117.060 51.894,112.540 53.203 M119.844 62.757 C 123.783 64.620,125.426 67.455,123.100 68.372 C 117.264 70.672,115.410 70.769,114.114 68.841 C 112.465 66.389,113.280 62.992,115.755 61.992 C 117.030 61.477,117.209 61.510,119.844 62.757 M145.823 73.595 C 148.230 74.032,150.920 74.645,151.800 74.959 C 152.680 75.272,154.390 75.749,155.600 76.019 C 160.367 77.080,180.547 86.645,183.400 89.195 C 183.840 89.588,184.949 90.285,185.864 90.744 C 186.779 91.204,188.334 92.278,189.320 93.131 C 190.307 93.985,192.485 95.474,194.161 96.442 C 197.528 98.384,206.488 104.109,209.015 105.932 C 209.903 106.572,211.386 107.483,212.310 107.954 C 213.235 108.426,215.101 109.529,216.458 110.406 C 217.814 111.283,219.126 112.000,219.373 112.000 C 219.620 112.000,221.077 112.601,222.611 113.335 C 226.326 115.113,230.344 116.413,234.000 117.021 C 235.650 117.295,238.080 117.707,239.400 117.937 C 240.720 118.166,243.225 118.562,244.966 118.817 C 248.300 119.304,256.302 121.219,258.000 121.936 C 258.550 122.169,260.299 122.639,261.887 122.981 C 263.474 123.323,265.904 124.036,267.287 124.564 C 268.669 125.092,271.727 126.246,274.081 127.127 C 284.190 130.910,285.262 133.434,277.901 136.119 C 274.768 137.262,266.400 144.391,263.486 148.400 C 262.607 149.610,261.376 151.145,260.750 151.812 C 255.897 156.987,250.834 173.235,250.809 183.723 C 250.763 202.139,263.998 226.052,278.913 234.504 C 281.912 236.204,281.520 237.348,277.141 239.677 C 262.672 247.371,267.211 262.656,282.634 258.173 C 286.058 257.178,286.611 257.398,289.462 260.902 C 292.659 264.831,293.295 267.356,291.303 268.215 C 288.238 269.537,276.003 268.684,270.581 266.771 C 265.439 264.956,262.709 266.013,264.706 269.046 C 265.586 270.382,275.468 273.085,279.853 273.189 C 280.811 273.212,284.347 277.538,287.716 282.808 C 291.756 289.130,299.776 291.108,307.000 287.565 C 312.719 284.761,313.468 280.919,310.239 270.962 C 308.395 265.274,308.319 265.743,311.700 261.962 C 316.599 256.483,317.482 254.607,315.626 253.614 C 314.010 252.749,313.252 253.212,308.532 257.944 C 301.107 265.389,298.333 266.201,295.734 261.693 C 295.133 260.652,294.048 259.009,293.321 258.042 C 291.573 255.717,291.584 254.358,293.361 253.002 C 294.110 252.431,295.593 250.535,296.657 248.788 C 299.032 244.888,302.060 243.859,305.289 245.855 C 306.034 246.315,313.226 247.208,318.207 247.459 C 325.321 247.817,334.137 246.404,342.163 243.620 C 346.465 242.127,346.734 242.253,349.766 247.182 C 352.397 251.458,352.334 252.094,348.556 259.507 C 346.881 262.792,344.586 266.701,343.456 268.194 C 342.325 269.687,340.590 272.030,339.600 273.401 C 332.850 282.749,317.119 297.083,304.000 305.839 C 294.963 311.871,294.136 312.400,293.749 312.400 C 293.533 312.400,292.556 312.906,291.578 313.524 C 287.942 315.822,272.434 322.804,267.232 324.485 C 257.030 327.782,245.524 323.356,231.379 310.694 C 223.124 303.303,213.979 303.772,210.140 311.782 C 207.860 316.538,208.204 319.183,212.445 329.510 C 213.089 331.079,212.617 332.123,211.159 332.349 C 210.033 332.523,199.585 331.679,196.400 331.157 C 190.707 330.223,176.708 327.300,175.309 326.754 C 173.944 326.221,164.780 323.600,164.280 323.600 C 164.081 323.600,161.911 322.719,159.459 321.643 C 157.007 320.567,154.550 319.561,154.000 319.409 C 153.450 319.256,151.110 318.272,148.800 317.222 C 146.490 316.172,143.250 314.724,141.600 314.003 C 138.732 312.751,135.460 310.996,130.487 308.041 C 129.229 307.294,127.030 306.026,125.600 305.223 C 121.575 302.964,116.386 299.619,114.400 298.003 C 113.410 297.197,111.610 295.874,110.400 295.063 C 107.026 292.800,105.527 291.673,104.000 290.250 C 103.230 289.533,102.215 288.689,101.744 288.373 C 95.469 284.169,77.709 266.449,71.320 258.017 C 70.396 256.798,68.776 254.674,67.720 253.297 C 66.028 251.092,63.862 247.848,61.688 244.266 C 61.310 243.642,60.190 241.819,59.200 240.214 C 57.519 237.489,55.981 234.502,50.853 224.000 C 49.725 221.690,48.266 218.316,47.612 216.503 C 46.958 214.690,46.163 212.800,45.845 212.303 C 45.528 211.806,44.994 210.500,44.659 209.400 C 44.324 208.300,43.477 205.960,42.778 204.200 C 42.079 202.440,41.016 198.930,40.415 196.400 C 39.814 193.870,39.033 190.852,38.680 189.692 C 38.327 188.533,37.834 185.743,37.584 183.492 C 37.334 181.242,36.946 178.680,36.722 177.800 C 36.084 175.293,35.844 159.549,36.381 155.398 C 36.636 153.419,37.101 149.708,37.412 147.151 C 38.075 141.712,40.810 133.093,42.782 130.227 C 43.458 129.243,44.353 127.643,44.770 126.670 C 45.187 125.697,46.175 124.054,46.964 123.020 C 47.754 121.985,48.400 120.912,48.400 120.635 C 48.400 117.147,66.885 100.635,77.800 94.372 C 79.340 93.488,81.770 92.052,83.200 91.180 C 84.630 90.307,86.700 89.160,87.800 88.629 C 92.584 86.321,96.912 84.400,97.338 84.394 C 97.592 84.390,99.416 83.668,101.391 82.789 C 103.366 81.910,106.336 80.818,107.991 80.363 C 109.646 79.908,112.350 79.012,114.000 78.371 C 116.741 77.306,123.543 75.414,131.200 73.586 C 135.230 72.624,140.492 72.627,145.823 73.595 M293.823 119.222 C 297.567 122.739,297.679 128.400,294.005 128.400 C 291.361 128.400,284.000 124.171,284.000 122.651 C 284.000 119.308,291.229 116.784,293.823 119.222 M297.201 137.972 C 300.501 139.703,302.549 141.549,302.337 142.603 C 302.206 143.256,297.367 145.481,292.724 147.025 C 285.744 149.345,275.174 158.997,271.326 166.565 C 264.339 180.305,266.014 201.849,274.816 211.454 C 275.650 212.364,276.599 213.624,276.925 214.254 C 278.822 217.921,291.796 228.170,296.816 229.967 C 298.017 230.397,300.101 231.208,301.446 231.769 C 318.001 238.669,341.681 233.665,354.600 220.535 C 358.671 216.398,360.062 216.710,358.207 221.345 C 357.661 222.709,357.106 224.450,356.974 225.213 C 356.492 227.982,355.971 228.675,352.674 230.931 C 348.672 233.670,342.162 236.766,337.600 238.101 C 328.903 240.645,329.213 240.602,319.600 240.565 L 310.600 240.531 304.600 238.915 C 298.734 237.334,297.664 236.968,291.678 234.482 C 287.632 232.803,279.281 227.011,276.000 223.610 C 275.230 222.811,274.240 221.897,273.800 221.578 C 272.744 220.811,269.070 216.469,268.403 215.200 C 268.115 214.650,267.111 213.210,266.172 212.000 C 260.411 204.572,256.628 186.828,258.628 176.609 C 259.255 173.403,259.370 172.948,260.818 167.925 C 262.106 163.456,265.303 157.258,267.690 154.600 C 268.876 153.280,270.495 151.339,271.288 150.288 C 272.921 148.124,278.822 143.213,281.323 141.937 C 282.236 141.472,283.638 140.657,284.441 140.126 C 290.019 136.434,293.232 135.892,297.201 137.972 M322.500 138.682 C 322.005 138.778,321.195 138.778,320.700 138.682 C 320.205 138.587,320.610 138.509,321.600 138.509 C 322.590 138.509,322.995 138.587,322.500 138.682 M326.800 139.200 C 327.250 139.491,327.050 139.588,326.000 139.588 C 325.230 139.588,324.330 139.413,324.000 139.200 C 323.550 138.909,323.750 138.812,324.800 138.812 C 325.570 138.812,326.470 138.987,326.800 139.200 M338.808 142.605 C 339.684 143.158,340.400 143.788,340.400 144.005 C 340.400 144.715,339.704 144.424,338.000 143.000 C 336.051 141.372,336.504 141.150,338.808 142.605 M323.800 147.675 C 341.288 151.870,356.385 164.956,359.710 178.800 C 362.408 190.035,362.442 193.190,359.963 202.377 C 358.085 209.338,350.098 220.105,345.203 222.273 C 344.435 222.613,343.311 223.308,342.706 223.818 C 341.345 224.963,335.385 227.851,333.323 228.365 C 332.485 228.574,330.990 229.042,330.000 229.406 C 322.207 232.267,303.217 229.443,295.414 224.262 C 294.283 223.511,292.559 222.489,291.580 221.990 C 288.398 220.366,280.320 212.313,277.392 207.844 C 272.714 200.704,270.195 186.189,272.179 177.800 C 275.007 165.845,286.197 153.510,297.400 149.997 C 298.280 149.721,299.184 149.351,299.409 149.174 C 302.537 146.717,316.284 145.872,323.800 147.675 M365.572 170.124 C 365.587 170.302,365.420 170.336,365.200 170.200 C 364.980 170.064,364.813 169.558,364.828 169.076 C 364.856 168.204,365.482 169.085,365.572 170.124 M132.200 184.968 C 116.565 187.970,112.008 198.204,122.362 207.060 C 129.039 212.771,141.522 216.490,146.207 214.165 C 151.255 211.659,148.878 206.864,143.286 208.272 C 137.619 209.700,124.000 202.449,124.000 198.004 C 124.000 194.414,129.288 191.506,136.248 191.268 C 141.241 191.098,142.156 191.363,147.319 194.476 C 151.007 196.699,154.000 195.961,154.000 192.827 C 154.000 191.880,151.702 189.181,150.328 188.516 C 142.746 184.843,137.846 183.884,132.200 184.968 M304.600 191.829 C 295.145 196.872,293.026 205.587,299.341 213.458 C 310.212 227.006,331.637 217.503,326.779 201.288 C 324.545 193.831,311.376 188.214,304.600 191.829 M210.892 194.799 C 202.725 195.953,192.780 201.917,188.052 208.496 C 179.151 220.884,179.529 236.070,189.063 249.000 C 202.917 267.791,233.147 270.142,248.900 253.653 C 272.073 229.399,246.479 189.768,210.892 194.799 M315.588 195.794 C 319.127 197.624,319.633 201.943,316.589 204.337 C 312.075 207.888,304.949 201.479,308.455 197.021 C 309.912 195.169,313.264 194.592,315.588 195.794 M32.407 196.404 C 32.848 196.640,33.437 197.762,33.823 199.104 C 35.170 203.776,36.120 206.659,37.048 208.888 C 38.501 212.379,38.358 213.159,35.691 216.290 C 31.802 220.854,30.887 222.163,30.056 224.350 C 28.000 229.760,24.886 230.969,20.191 228.180 C 11.625 223.091,13.691 214.037,26.600 200.083 C 29.846 196.575,31.165 195.739,32.407 196.404 M223.000 199.390 C 237.633 201.672,246.971 209.437,251.874 223.400 C 256.704 237.155,247.470 254.082,232.600 258.729 C 227.197 260.418,215.767 260.833,212.603 259.455 C 211.725 259.073,210.198 258.579,209.210 258.358 C 204.039 257.199,194.311 249.629,190.662 243.924 C 184.765 234.705,185.174 218.796,191.498 211.440 C 196.555 205.557,202.410 201.200,205.259 201.200 C 205.695 201.200,206.895 200.841,207.926 200.403 C 211.643 198.822,217.038 198.460,223.000 199.390 M218.765 230.748 C 212.872 232.002,209.459 239.408,212.241 244.907 C 218.680 257.641,238.216 251.408,233.608 238.090 C 231.771 232.783,224.983 229.424,218.765 230.748 M226.007 233.868 C 228.632 235.418,228.868 239.324,226.414 240.593 C 221.550 243.108,216.663 236.823,221.290 234.002 C 222.889 233.027,224.506 232.981,226.007 233.868 M383.810 248.062 C 389.535 253.089,387.192 261.538,379.400 263.958 C 374.110 265.602,371.610 265.325,370.410 262.962 C 370.086 262.323,369.034 260.480,368.073 258.867 C 363.654 251.449,363.823 250.587,369.889 249.575 C 373.221 249.019,376.273 248.158,377.600 247.400 C 379.450 246.342,382.183 246.634,383.810 248.062 M358.804 263.300 C 359.799 264.932,359.799 265.401,358.800 266.400 C 356.320 268.880,353.054 265.819,355.229 263.054 C 356.398 261.567,357.807 261.664,358.804 263.300 M304.119 269.300 C 304.974 269.936,306.606 275.396,306.971 278.839 C 307.762 286.306,296.298 287.663,291.643 280.653 C 291.332 280.184,290.384 278.883,289.538 277.763 C 286.881 274.244,287.578 273.253,293.600 271.983 C 295.910 271.496,298.790 270.589,300.000 269.968 C 302.481 268.694,303.157 268.585,304.119 269.300 M224.063 311.560 C 225.541 312.236,228.935 314.594,232.194 317.208 C 243.695 326.434,251.115 329.972,260.716 330.806 C 265.560 331.226,266.812 332.397,266.791 336.487 C 266.756 343.384,260.135 347.057,251.400 345.025 C 244.587 343.440,239.469 341.929,236.535 340.637 C 234.740 339.847,233.079 339.200,232.844 339.200 C 230.523 339.200,220.485 332.401,218.080 329.200 C 210.187 318.694,214.145 307.024,224.063 311.560 " stroke="none" fill="#090d0d" fill-rule="evenodd"></path><path id="path2" d="M133.000 75.016 C 131.240 75.343,128.990 75.873,128.000 76.194 C 127.010 76.516,123.950 77.336,121.200 78.017 C 118.450 78.698,115.390 79.616,114.400 80.058 C 113.410 80.500,110.980 81.282,109.000 81.795 C 101.995 83.611,88.008 90.011,79.662 95.218 C 77.387 96.638,74.358 98.528,72.932 99.417 C 70.405 100.993,68.920 102.125,63.064 106.934 C 58.747 110.478,49.600 120.633,49.600 121.881 C 49.600 122.106,49.036 122.990,48.346 123.845 C 47.656 124.700,46.633 126.390,46.072 127.600 C 45.511 128.810,44.543 130.604,43.921 131.587 C 37.349 141.963,35.804 170.737,40.782 190.000 C 41.209 191.650,41.954 194.611,42.438 196.580 C 42.922 198.549,43.739 201.080,44.254 202.205 C 44.769 203.330,45.550 205.698,45.991 207.467 C 46.431 209.236,47.232 211.475,47.770 212.442 C 48.309 213.409,49.248 215.550,49.857 217.200 C 50.466 218.850,51.737 221.576,52.682 223.258 C 53.627 224.939,54.400 226.444,54.400 226.601 C 54.400 227.243,59.494 237.196,61.155 239.800 C 62.138 241.340,63.386 243.320,63.930 244.200 C 64.976 245.895,65.937 247.328,69.694 252.800 C 76.020 262.015,94.523 280.988,102.851 286.800 C 103.954 287.570,105.033 288.515,105.249 288.901 C 105.464 289.286,106.576 290.232,107.720 291.003 C 108.864 291.774,111.420 293.558,113.400 294.967 C 115.380 296.376,118.350 298.390,120.000 299.443 C 121.650 300.496,123.530 301.790,124.177 302.318 C 124.825 302.847,125.784 303.442,126.308 303.641 C 126.832 303.840,128.052 304.548,129.020 305.214 C 129.988 305.879,131.959 306.953,133.400 307.600 C 134.841 308.247,136.824 309.329,137.806 310.004 C 138.788 310.680,140.268 311.478,141.096 311.779 C 141.923 312.080,145.065 313.505,148.078 314.946 C 151.091 316.388,154.619 317.842,155.918 318.179 C 157.217 318.515,159.698 319.437,161.432 320.227 C 163.166 321.017,165.668 321.936,166.992 322.268 C 168.316 322.601,172.318 323.752,175.885 324.826 C 179.452 325.901,183.578 326.973,185.053 327.209 C 186.529 327.444,187.894 327.735,188.087 327.854 C 189.788 328.905,209.699 331.261,210.459 330.501 C 210.776 330.184,210.416 328.922,209.157 325.932 C 201.424 307.573,217.968 296.764,233.355 310.122 C 249.684 324.297,259.260 326.768,273.195 320.402 C 275.606 319.301,277.839 318.400,278.159 318.400 C 279.064 318.400,294.584 310.261,295.938 309.076 C 296.302 308.757,297.230 308.185,298.000 307.803 C 299.790 306.917,306.291 302.561,307.600 301.370 C 308.150 300.869,309.446 299.861,310.481 299.130 C 316.101 295.155,327.623 284.602,332.241 279.200 C 333.651 277.550,336.091 274.760,337.663 273.000 C 342.332 267.773,350.000 254.568,350.000 251.755 C 350.000 250.610,347.737 246.610,346.410 245.409 C 345.509 244.593,343.263 244.922,337.000 246.788 C 328.112 249.436,317.400 249.797,307.800 247.772 C 300.088 246.145,300.594 246.042,298.161 249.738 C 297.025 251.464,295.535 253.387,294.851 254.013 C 293.976 254.812,293.687 255.360,293.878 255.859 C 294.402 257.224,297.410 261.322,298.467 262.111 L 299.533 262.906 302.067 261.470 C 303.906 260.427,305.532 258.971,308.000 256.157 C 312.575 250.942,314.292 250.278,316.900 252.720 C 319.118 254.797,318.235 257.165,313.100 262.914 C 310.484 265.842,310.449 266.027,311.766 269.901 C 313.806 275.899,314.184 283.642,312.548 285.926 C 312.095 286.558,310.054 287.854,307.589 289.075 C 297.809 293.918,291.365 291.316,283.315 279.274 C 280.677 275.326,280.293 275.057,276.400 274.422 C 272.569 273.796,266.906 272.282,265.308 271.456 C 259.709 268.560,263.180 261.939,269.046 264.327 C 273.144 265.994,274.305 266.322,277.800 266.796 C 279.780 267.064,283.239 267.220,285.487 267.142 C 291.758 266.924,291.946 266.177,287.126 260.646 L 285.772 259.093 282.085 259.805 C 269.442 262.249,261.816 252.893,269.267 244.079 C 272.223 240.582,273.113 239.803,275.756 238.400 C 278.942 236.709,278.987 236.403,276.300 234.670 C 263.810 226.616,252.756 208.957,249.714 192.200 C 247.346 179.149,251.306 162.094,259.188 151.400 C 259.999 150.300,261.307 148.500,262.094 147.400 C 264.765 143.666,270.820 138.401,276.059 135.256 C 279.843 132.985,280.498 132.406,280.070 131.714 C 279.752 131.198,274.861 128.801,274.128 128.800 C 273.868 128.800,271.519 128.001,268.909 127.025 C 266.299 126.048,262.371 124.793,260.181 124.236 C 257.992 123.679,253.832 122.598,250.939 121.834 C 248.045 121.070,243.815 120.165,241.539 119.825 C 227.579 117.735,220.551 115.245,211.064 109.027 C 207.949 106.985,204.770 104.993,204.000 104.600 C 203.230 104.207,201.520 103.120,200.200 102.184 C 198.880 101.248,196.310 99.722,194.489 98.794 C 192.517 97.788,190.415 96.327,189.289 95.179 C 188.250 94.120,186.500 92.869,185.400 92.400 C 184.300 91.930,183.040 91.209,182.600 90.797 C 180.875 89.183,169.124 83.022,162.600 80.312 C 152.041 75.925,139.854 73.744,133.000 75.016 M287.330 120.990 C 285.619 122.701,285.623 122.707,289.840 124.987 C 294.686 127.608,296.054 127.152,294.619 123.395 C 293.062 119.316,290.010 118.310,287.330 120.990 M289.800 139.198 C 273.713 144.847,260.395 163.797,259.721 182.000 C 259.349 192.016,262.753 204.585,267.574 211.002 C 268.401 212.104,269.381 213.589,269.750 214.303 C 271.400 217.494,279.235 224.883,285.000 228.685 C 285.880 229.266,287.500 230.334,288.600 231.058 C 297.234 236.745,316.794 240.287,328.200 238.229 C 330.180 237.871,332.845 237.398,334.122 237.177 C 339.882 236.181,353.057 229.709,354.388 227.223 C 355.632 224.897,354.512 222.719,352.962 224.452 C 345.144 233.189,326.540 238.232,311.000 235.826 C 299.887 234.105,294.049 231.598,285.400 224.831 C 261.753 206.329,258.085 175.057,277.289 155.684 C 282.705 150.221,288.403 146.667,296.745 143.551 C 300.534 142.135,300.483 141.229,296.512 139.411 C 293.982 138.253,292.616 138.209,289.800 139.198 M142.600 183.566 C 148.412 185.128,154.361 188.857,155.227 191.482 C 156.798 196.243,151.049 199.630,146.955 196.356 C 140.420 191.130,126.000 192.258,126.000 197.996 C 126.000 201.705,137.718 207.434,143.193 206.401 C 150.476 205.027,153.855 211.873,147.680 215.491 C 143.620 217.871,139.060 217.280,129.741 213.168 C 127.289 212.085,125.164 211.200,125.020 211.200 C 123.409 211.200,117.522 204.876,115.989 201.499 C 111.127 190.789,127.762 179.579,142.600 183.566 M224.400 193.213 C 239.419 195.160,255.556 209.392,258.262 223.078 C 265.657 260.478,222.137 281.547,192.264 255.029 C 176.497 241.032,175.760 217.642,190.623 203.000 C 198.476 195.265,211.379 191.526,224.400 193.213 M173.371 196.629 C 175.487 198.744,172.358 205.200,169.216 205.200 C 166.641 205.200,167.941 199.278,171.054 196.829 C 172.319 195.834,172.557 195.814,173.371 196.629 M340.700 252.732 C 341.368 253.561,341.330 254.213,340.571 254.971 C 339.641 255.902,338.117 255.751,337.400 254.656 C 335.968 252.471,339.045 250.678,340.700 252.732 M223.371 285.829 C 224.506 286.963,223.545 288.400,221.651 288.400 C 220.329 288.400,219.600 287.743,219.600 286.553 C 219.600 285.154,222.198 284.655,223.371 285.829 M398.572 302.045 C 398.421 302.289,398.546 302.647,398.849 302.839 C 399.705 303.381,400.000 303.268,400.000 302.400 C 400.000 301.546,399.030 301.305,398.572 302.045 " stroke="none" fill="#5fd9e9" fill-rule="evenodd"></path><path id="path3" d="M116.587 65.640 C 116.440 66.106,116.527 66.686,116.784 66.940 C 117.134 67.288,117.182 67.228,116.979 66.695 C 116.831 66.307,116.933 65.722,117.204 65.395 C 117.513 65.023,117.540 64.800,117.276 64.800 C 117.044 64.800,116.734 65.178,116.587 65.640 M131.200 73.984 C 122.749 75.997,116.557 77.704,113.927 78.745 C 112.317 79.383,109.633 80.277,107.962 80.734 C 106.292 81.190,103.524 82.202,101.812 82.982 C 100.101 83.762,98.493 84.400,98.239 84.400 C 97.985 84.400,96.523 85.001,94.989 85.736 C 93.455 86.470,91.300 87.381,90.200 87.760 C 89.100 88.140,86.580 89.419,84.600 90.603 C 82.620 91.787,79.560 93.599,77.800 94.629 C 65.931 101.579,51.810 114.409,48.257 121.472 C 47.684 122.611,47.027 123.660,46.798 123.801 C 46.568 123.943,45.737 125.337,44.951 126.897 C 44.165 128.458,43.097 130.380,42.577 131.168 C 41.293 133.114,38.515 141.663,37.996 145.266 C 37.763 146.880,37.271 150.090,36.904 152.400 C 36.079 157.579,35.951 173.003,36.704 176.400 C 36.973 177.610,37.371 180.226,37.590 182.213 C 37.809 184.199,38.368 187.259,38.832 189.013 C 39.296 190.766,40.091 194.000,40.599 196.200 C 41.579 200.442,44.531 209.002,46.394 213.000 C 47.008 214.320,47.993 216.749,48.583 218.398 C 49.172 220.047,49.881 221.667,50.160 221.998 C 50.931 222.915,52.800 226.710,52.800 227.359 C 52.800 227.674,53.548 229.342,54.462 231.066 C 55.376 232.790,56.695 235.280,57.392 236.600 C 58.090 237.920,59.508 240.350,60.544 242.000 C 61.580 243.650,63.186 246.214,64.114 247.697 C 65.041 249.181,66.700 251.574,67.800 253.016 C 68.900 254.458,70.512 256.575,71.382 257.719 C 78.113 266.574,94.101 282.504,102.064 288.290 C 102.738 288.780,104.062 289.860,105.006 290.690 C 108.789 294.018,122.127 303.230,126.032 305.212 C 127.004 305.705,128.520 306.593,129.400 307.184 C 132.917 309.547,139.870 313.108,146.400 315.890 C 148.710 316.875,150.780 317.824,151.000 317.999 C 151.220 318.174,152.801 318.799,154.512 319.387 C 156.224 319.976,158.924 321.048,160.512 321.771 C 162.101 322.494,164.660 323.397,166.200 323.777 C 169.530 324.600,172.408 325.456,174.600 326.276 C 176.224 326.884,182.761 328.326,194.042 330.566 C 197.798 331.311,207.035 332.100,210.000 331.928 C 212.580 331.778,213.099 330.654,211.678 328.292 C 202.198 312.521,215.789 297.910,229.674 308.947 C 252.410 327.019,257.907 328.578,274.000 321.520 C 281.236 318.346,288.020 315.143,290.197 313.872 C 291.295 313.231,292.645 312.535,293.197 312.326 C 294.195 311.948,295.242 311.282,304.000 305.457 C 309.348 301.899,309.561 301.737,317.200 295.363 C 323.530 290.082,333.381 280.515,336.727 276.400 C 346.575 264.288,352.254 253.920,351.015 250.315 C 348.933 244.259,346.406 242.570,341.770 244.136 C 329.897 248.149,317.262 248.952,306.600 246.372 C 299.678 244.697,299.488 244.751,296.804 249.193 C 295.853 250.767,294.473 252.513,293.738 253.075 C 291.641 254.674,292.823 258.063,297.163 262.900 C 299.334 265.319,302.953 263.513,309.252 256.865 C 313.395 252.493,314.405 252.005,316.000 253.600 C 317.641 255.241,317.186 256.243,312.320 261.697 C 308.745 265.703,308.826 265.350,310.376 270.189 C 313.419 279.687,313.041 284.911,309.168 286.903 C 299.967 291.634,292.372 290.267,287.470 282.996 C 281.054 273.481,281.518 273.846,274.304 272.624 C 266.364 271.279,264.000 270.087,264.000 267.429 C 264.000 265.019,266.066 264.700,270.600 266.410 C 275.042 268.085,283.151 269.044,287.739 268.436 C 293.460 267.679,293.546 266.253,288.257 259.900 C 286.464 257.747,285.740 257.596,282.000 258.600 C 266.683 262.711,262.405 247.331,276.700 239.546 C 281.079 237.161,281.291 236.602,278.541 234.692 C 259.503 221.466,248.316 198.333,250.835 177.400 C 251.833 169.109,256.785 155.656,260.184 152.000 C 260.695 151.450,262.013 149.787,263.111 148.304 C 266.503 143.726,273.422 137.963,278.800 135.238 C 280.833 134.208,282.400 132.885,282.400 132.200 C 282.400 131.146,278.455 128.858,274.800 127.791 C 274.250 127.630,271.886 126.729,269.546 125.787 C 267.206 124.845,263.876 123.776,262.146 123.411 C 260.416 123.046,258.370 122.494,257.600 122.184 C 255.418 121.305,246.510 119.266,241.937 118.599 C 231.269 117.043,227.405 116.074,222.800 113.800 C 221.370 113.093,219.750 112.407,219.200 112.273 C 218.650 112.140,216.940 111.230,215.400 110.252 C 213.860 109.274,211.352 107.692,209.827 106.737 C 208.302 105.782,204.972 103.631,202.427 101.958 C 199.882 100.285,196.990 98.505,196.000 98.002 C 193.597 96.781,189.990 94.310,189.000 93.205 C 188.560 92.715,187.300 91.857,186.200 91.300 C 185.100 90.743,183.605 89.833,182.878 89.279 C 178.747 86.131,160.110 77.354,155.200 76.245 C 153.770 75.921,152.065 75.454,151.411 75.205 C 146.650 73.393,136.305 72.768,131.200 73.984 M146.470 75.603 C 157.870 77.781,177.523 86.047,182.600 90.797 C 183.040 91.209,184.300 91.930,185.400 92.400 C 186.500 92.869,188.250 94.120,189.289 95.179 C 190.415 96.327,192.517 97.788,194.489 98.794 C 196.310 99.722,198.880 101.248,200.200 102.184 C 201.520 103.120,203.230 104.207,204.000 104.600 C 204.770 104.993,207.949 106.985,211.064 109.027 C 220.551 115.245,227.579 117.735,241.539 119.825 C 243.815 120.165,248.045 121.070,250.939 121.834 C 253.832 122.598,257.992 123.679,260.181 124.236 C 262.371 124.793,266.299 126.048,268.909 127.025 C 271.519 128.001,273.868 128.800,274.128 128.800 C 274.861 128.801,279.752 131.198,280.070 131.714 C 280.498 132.406,279.843 132.985,276.059 135.256 C 270.820 138.401,264.765 143.666,262.094 147.400 C 261.307 148.500,259.999 150.300,259.188 151.400 C 251.306 162.094,247.346 179.149,249.714 192.200 C 252.756 208.957,263.810 226.616,276.300 234.670 C 278.987 236.403,278.942 236.709,275.756 238.400 C 273.113 239.803,272.223 240.582,269.267 244.079 C 261.816 252.893,269.442 262.249,282.085 259.805 L 285.772 259.093 287.126 260.646 C 291.946 266.177,291.758 266.924,285.487 267.142 C 283.239 267.220,279.780 267.064,277.800 266.796 C 274.305 266.322,273.144 265.994,269.046 264.327 C 263.180 261.939,259.709 268.560,265.308 271.456 C 266.906 272.282,272.569 273.796,276.400 274.422 C 280.293 275.057,280.677 275.326,283.315 279.274 C 291.365 291.316,297.809 293.918,307.589 289.075 C 310.054 287.854,312.095 286.558,312.548 285.926 C 314.184 283.642,313.806 275.899,311.766 269.901 C 310.449 266.027,310.484 265.842,313.100 262.914 C 318.235 257.165,319.118 254.797,316.900 252.720 C 314.292 250.278,312.575 250.942,308.000 256.157 C 305.532 258.971,303.906 260.427,302.067 261.470 L 299.533 262.906 298.467 262.111 C 297.410 261.322,294.402 257.224,293.878 255.859 C 293.687 255.360,293.976 254.812,294.851 254.013 C 295.535 253.387,297.025 251.464,298.161 249.738 C 300.594 246.042,300.088 246.145,307.800 247.772 C 317.400 249.797,328.112 249.436,337.000 246.788 C 343.263 244.922,345.509 244.593,346.410 245.409 C 347.737 246.610,350.000 250.610,350.000 251.755 C 350.000 254.568,342.332 267.773,337.663 273.000 C 336.091 274.760,333.651 277.550,332.241 279.200 C 327.623 284.602,316.101 295.155,310.481 299.130 C 309.446 299.861,308.150 300.869,307.600 301.370 C 306.291 302.561,299.790 306.917,298.000 307.803 C 297.230 308.185,296.302 308.757,295.938 309.076 C 294.584 310.261,279.064 318.400,278.159 318.400 C 277.839 318.400,275.606 319.301,273.195 320.402 C 259.260 326.768,249.684 324.297,233.355 310.122 C 217.968 296.764,201.424 307.573,209.157 325.932 C 210.416 328.922,210.776 330.184,210.459 330.501 C 209.699 331.261,189.788 328.905,188.087 327.854 C 187.894 327.735,186.529 327.444,185.053 327.209 C 183.578 326.973,179.452 325.901,175.885 324.826 C 172.318 323.752,168.316 322.601,166.992 322.268 C 165.668 321.936,163.166 321.017,161.432 320.227 C 159.698 319.437,157.217 318.515,155.918 318.179 C 154.619 317.842,151.091 316.388,148.078 314.946 C 145.065 313.505,141.923 312.080,141.096 311.779 C 140.268 311.478,138.788 310.680,137.806 310.004 C 136.824 309.329,134.841 308.247,133.400 307.600 C 131.959 306.953,129.988 305.879,129.020 305.214 C 128.052 304.548,126.832 303.840,126.308 303.641 C 125.784 303.442,124.825 302.847,124.177 302.318 C 123.530 301.790,121.650 300.496,120.000 299.443 C 118.350 298.390,115.380 296.376,113.400 294.967 C 111.420 293.558,108.864 291.774,107.720 291.003 C 106.576 290.232,105.464 289.286,105.249 288.901 C 105.033 288.515,103.954 287.570,102.851 286.800 C 98.871 284.023,94.931 280.527,88.424 274.002 C 76.919 262.464,70.043 254.098,63.930 244.200 C 63.386 243.320,62.138 241.340,61.155 239.800 C 59.494 237.196,54.400 227.243,54.400 226.601 C 54.400 226.444,53.627 224.939,52.682 223.258 C 51.737 221.576,50.466 218.850,49.857 217.200 C 49.248 215.550,48.309 213.409,47.770 212.442 C 47.232 211.475,46.431 209.236,45.991 207.467 C 45.550 205.698,44.769 203.330,44.254 202.205 C 43.739 201.080,42.922 198.549,42.438 196.580 C 41.954 194.611,41.209 191.650,40.782 190.000 C 35.804 170.737,37.349 141.963,43.921 131.587 C 44.543 130.604,45.511 128.810,46.072 127.600 C 46.633 126.390,47.656 124.700,48.346 123.845 C 49.036 122.990,49.600 122.106,49.600 121.881 C 49.600 120.633,58.747 110.478,63.064 106.934 C 68.920 102.125,70.405 100.993,72.932 99.417 C 74.358 98.528,77.387 96.638,79.662 95.218 C 88.008 90.011,101.995 83.611,109.000 81.795 C 110.980 81.282,113.410 80.500,114.400 80.058 C 115.390 79.616,118.450 78.698,121.200 78.017 C 123.950 77.336,127.010 76.516,128.000 76.194 C 133.786 74.316,138.881 74.153,146.470 75.603 M287.800 119.028 C 283.184 121.423,283.364 123.059,288.553 125.887 C 294.980 129.390,297.851 128.439,295.976 123.429 C 294.288 118.916,291.209 117.258,287.800 119.028 M293.001 120.639 C 294.135 121.863,295.335 124.799,295.134 125.856 C 294.887 127.149,293.381 126.902,289.840 124.987 C 285.623 122.707,285.619 122.701,287.330 120.990 C 289.145 119.175,291.509 119.029,293.001 120.639 M289.797 137.765 C 284.478 139.814,275.070 146.253,272.105 149.874 C 271.277 150.884,269.566 152.901,268.302 154.356 C 259.784 164.159,255.882 184.618,260.170 197.000 C 260.475 197.880,260.841 199.140,260.985 199.800 C 261.606 202.657,264.951 209.998,266.470 211.835 C 267.352 212.903,268.402 214.419,268.802 215.204 C 271.313 220.125,284.959 231.262,292.189 234.289 C 304.288 239.356,308.204 240.200,319.600 240.200 C 330.261 240.200,334.682 239.364,343.120 235.754 C 351.881 232.006,356.016 228.801,356.542 225.352 C 356.680 224.445,357.151 222.915,357.588 221.952 C 359.540 217.649,358.282 217.381,354.320 221.254 C 342.238 233.066,325.619 237.351,306.400 233.611 C 302.585 232.869,294.725 229.598,291.109 227.248 C 285.660 223.707,278.787 217.735,277.019 215.006 C 276.589 214.343,275.535 212.990,274.675 212.000 C 269.809 206.394,266.192 194.337,266.515 184.800 C 266.943 172.145,271.410 162.684,281.052 154.008 C 283.924 151.424,289.380 147.999,292.600 146.759 C 303.658 142.500,304.107 141.631,297.011 138.218 C 293.572 136.564,293.006 136.529,289.797 137.765 M296.512 139.411 C 300.483 141.229,300.534 142.135,296.745 143.551 C 288.897 146.483,285.798 148.283,280.000 153.275 C 257.950 172.261,260.443 205.304,285.400 224.831 C 294.049 231.598,299.887 234.105,311.000 235.826 C 326.540 238.232,345.144 233.189,352.962 224.452 C 354.512 222.719,355.632 224.897,354.388 227.223 C 353.057 229.709,339.882 236.181,334.122 237.177 C 332.845 237.398,330.180 237.871,328.200 238.229 C 316.794 240.287,297.234 236.745,288.600 231.058 C 287.500 230.334,285.880 229.266,285.000 228.685 C 279.235 224.883,271.400 217.494,269.750 214.303 C 269.381 213.589,268.401 212.104,267.574 211.002 C 265.740 208.561,263.061 202.589,261.742 198.000 C 255.327 175.678,264.106 154.051,284.535 141.850 C 290.428 138.331,293.006 137.806,296.512 139.411 M304.600 148.605 C 278.128 155.526,265.774 178.356,275.691 202.028 C 278.487 208.701,285.627 217.256,291.359 220.800 C 292.605 221.570,294.514 222.785,295.602 223.500 C 296.690 224.215,297.675 224.800,297.789 224.800 C 297.904 224.800,300.383 225.680,303.299 226.757 C 316.041 231.459,333.190 229.983,341.779 223.445 C 342.451 222.934,343.742 222.137,344.650 221.675 C 347.692 220.126,354.471 212.384,356.793 207.807 C 364.090 193.428,360.676 174.023,348.816 162.459 C 336.415 150.368,318.877 144.873,304.600 148.605 M323.600 149.387 C 352.645 156.088,367.899 183.874,355.790 208.021 C 353.564 212.459,347.361 219.473,344.240 221.080 C 343.558 221.431,342.460 222.121,341.800 222.614 C 331.232 230.496,307.254 230.643,295.931 222.897 C 294.979 222.245,293.613 221.412,292.896 221.044 C 282.750 215.842,272.800 198.796,272.800 186.615 C 272.800 173.983,280.665 160.558,291.774 154.227 C 301.220 148.845,313.291 147.009,323.600 149.387 M129.972 183.574 C 114.030 187.830,110.327 199.541,121.952 208.934 C 123.495 210.180,124.875 211.200,125.020 211.200 C 125.164 211.200,127.289 212.085,129.741 213.168 C 139.060 217.280,143.620 217.871,147.680 215.491 C 153.855 211.873,150.476 205.027,143.193 206.401 C 137.718 207.434,126.000 201.705,126.000 197.996 C 126.000 192.258,140.420 191.130,146.955 196.356 C 149.888 198.702,154.257 197.705,155.226 194.470 C 157.310 187.516,141.216 180.572,129.972 183.574 M140.483 184.591 C 143.384 185.097,145.951 186.016,150.322 188.116 C 151.725 188.790,154.400 191.874,154.400 192.817 C 154.400 196.026,150.412 197.244,147.390 194.958 C 139.880 189.276,124.400 191.391,124.400 198.099 C 124.400 202.235,137.788 209.257,143.114 207.916 C 148.975 206.439,151.902 211.833,146.626 214.388 C 139.323 217.923,121.600 210.098,117.490 201.525 C 113.853 193.937,120.845 186.185,132.882 184.460 C 136.526 183.937,136.760 183.941,140.483 184.591 M303.699 190.560 C 290.589 196.929,291.206 212.965,304.821 219.722 C 321.198 227.849,336.835 208.662,324.674 195.362 C 319.292 189.475,310.211 187.397,303.699 190.560 M315.984 190.636 C 334.060 196.440,331.492 220.083,312.715 220.738 L 308.751 220.876 304.967 218.973 C 298.006 215.472,295.435 211.549,295.414 204.400 C 295.382 193.821,305.280 187.199,315.984 190.636 M210.347 193.195 C 207.057 193.618,202.398 195.413,197.430 198.173 C 173.759 211.320,174.064 243.231,198.017 259.507 C 217.557 272.784,245.445 267.092,255.371 247.800 C 261.849 235.209,259.971 219.386,250.717 208.600 C 240.151 196.285,226.582 191.106,210.347 193.195 M227.430 195.208 C 238.702 198.090,248.779 205.930,254.034 215.906 C 264.642 236.039,252.478 260.488,230.000 264.213 C 200.578 269.088,176.426 246.490,182.321 219.600 C 186.238 201.731,207.654 190.150,227.430 195.208 M310.384 196.585 C 306.484 198.707,308.975 204.400,313.804 204.400 C 316.834 204.400,318.654 200.781,316.941 198.165 C 315.622 196.153,312.542 195.411,310.384 196.585 M315.840 198.160 C 317.347 199.667,317.477 200.304,316.615 201.971 C 315.013 205.068,309.200 203.356,309.200 199.788 C 309.200 196.725,313.381 195.701,315.840 198.160 M212.400 200.012 C 193.807 203.299,182.856 220.404,188.591 237.200 C 194.694 255.073,216.270 264.185,235.400 256.966 C 243.929 253.748,252.169 241.183,252.166 231.400 C 252.159 212.523,231.933 196.559,212.400 200.012 M28.255 202.383 C 27.235 203.473,26.400 204.553,26.400 204.782 C 26.400 205.011,25.810 205.873,25.089 206.699 C 22.975 209.121,22.517 209.953,24.368 208.009 C 25.306 207.025,26.346 205.675,26.680 205.009 C 27.014 204.344,28.025 203.035,28.927 202.100 C 29.829 201.165,30.464 200.400,30.338 200.400 C 30.212 200.400,29.275 201.292,28.255 202.383 M228.600 202.125 C 249.003 209.091,257.478 230.392,246.375 246.800 C 232.932 266.666,197.897 260.887,189.392 237.400 C 184.054 222.657,191.838 207.390,207.400 202.078 C 213.971 199.835,221.944 199.853,228.600 202.125 M34.854 211.574 C 34.825 212.110,34.400 213.010,33.911 213.574 L 33.023 214.600 34.146 213.556 C 34.946 212.812,35.218 212.236,35.090 211.556 L 34.909 210.600 34.854 211.574 M19.588 213.622 C 19.346 214.074,19.207 214.622,19.280 214.839 C 19.352 215.057,19.618 214.687,19.871 214.017 C 20.397 212.625,20.239 212.405,19.588 213.622 M31.775 216.100 L 30.600 217.400 31.900 216.225 C 33.112 215.130,33.384 214.800,33.075 214.800 C 33.006 214.800,32.421 215.385,31.775 216.100 M18.509 219.600 C 18.509 220.590,18.587 220.995,18.682 220.500 C 18.778 220.005,18.778 219.195,18.682 218.700 C 18.587 218.205,18.509 218.610,18.509 219.600 M26.651 223.879 C 26.240 224.429,25.340 225.125,24.651 225.424 C 23.963 225.724,23.642 225.976,23.938 225.984 C 24.742 226.008,26.598 224.816,27.161 223.914 C 27.891 222.745,27.519 222.719,26.651 223.879 M218.531 229.193 C 212.295 230.520,208.452 237.053,210.152 243.436 C 213.446 255.806,231.273 257.202,235.201 245.398 C 238.357 235.913,229.124 226.938,218.531 229.193 M227.821 230.708 C 239.511 236.679,236.359 252.800,223.503 252.800 C 211.774 252.800,205.848 238.765,214.648 231.830 C 217.753 229.383,224.159 228.837,227.821 230.708 M221.337 235.027 C 220.069 236.295,220.268 238.133,221.822 239.500 C 224.977 242.276,228.999 238.137,226.031 235.169 C 224.519 233.658,222.759 233.604,221.337 235.027 M225.600 235.600 C 227.097 237.097,225.989 239.600,223.829 239.600 C 222.798 239.600,221.200 237.945,221.200 236.878 C 221.200 234.985,224.134 234.134,225.600 235.600 M372.800 261.200 C 373.035 261.640,373.430 262.000,373.676 262.000 C 373.922 262.000,373.798 261.640,373.400 261.200 C 373.002 260.760,372.608 260.400,372.524 260.400 C 372.440 260.400,372.565 260.760,372.800 261.200 M300.503 270.794 C 299.790 271.229,297.371 272.050,295.128 272.618 C 288.735 274.239,288.608 274.424,291.219 278.333 C 294.434 283.147,297.490 284.867,301.707 284.235 C 305.974 283.595,307.027 280.812,305.339 274.633 C 304.025 269.821,303.188 269.157,300.503 270.794 M303.406 271.209 C 305.043 273.858,305.936 280.864,304.784 282.016 C 301.306 285.494,294.952 283.523,291.985 278.046 C 290.137 274.634,290.070 274.714,296.081 273.179 C 297.874 272.722,299.984 272.007,300.770 271.591 C 302.412 270.723,303.048 270.631,303.406 271.209 M217.798 314.402 C 216.775 315.532,217.210 315.637,218.286 314.520 C 218.773 314.014,219.026 313.600,218.848 313.600 C 218.670 313.600,218.197 313.961,217.798 314.402 M224.767 315.345 C 225.300 316.001,226.800 316.993,226.800 316.689 C 226.800 316.613,226.215 316.122,225.500 315.599 C 224.696 315.010,224.416 314.913,224.767 315.345 M216.920 318.000 C 216.920 319.210,216.995 319.705,217.087 319.100 C 217.178 318.495,217.178 317.505,217.087 316.900 C 216.995 316.295,216.920 316.790,216.920 318.000 M229.600 319.000 C 230.346 319.770,231.047 320.400,231.157 320.400 C 231.267 320.400,230.746 319.770,230.000 319.000 C 229.254 318.230,228.553 317.600,228.443 317.600 C 228.333 317.600,228.854 318.230,229.600 319.000 M234.400 322.525 C 234.400 322.594,234.985 323.179,235.700 323.825 L 237.000 325.000 235.825 323.700 C 234.730 322.488,234.400 322.216,234.400 322.525 M220.400 327.725 C 220.400 327.794,220.985 328.379,221.700 329.025 L 223.000 330.200 221.825 328.900 C 220.730 327.688,220.400 327.416,220.400 327.725 M226.800 332.979 C 226.800 333.089,227.340 333.459,228.000 333.800 C 228.660 334.141,229.200 334.331,229.200 334.221 C 229.200 334.111,228.660 333.741,228.000 333.400 C 227.340 333.059,226.800 332.869,226.800 332.979 M256.500 333.076 C 256.885 333.176,257.515 333.176,257.900 333.076 C 258.285 332.975,257.970 332.893,257.200 332.893 C 256.430 332.893,256.115 332.975,256.500 333.076 M263.701 336.600 C 263.705 337.480,263.787 337.793,263.883 337.295 C 263.979 336.798,263.975 336.078,263.875 335.695 C 263.775 335.313,263.696 335.720,263.701 336.600 " stroke="none" fill="#56888d" fill-rule="evenodd"></path><path id="path4" d="M115.755 61.992 C 113.280 62.992,112.465 66.389,114.114 68.841 C 115.410 70.769,117.264 70.672,123.100 68.372 C 125.426 67.455,123.783 64.620,119.844 62.757 C 117.209 61.510,117.030 61.477,115.755 61.992 M118.420 65.410 C 119.736 66.091,119.914 66.594,118.967 66.957 C 117.230 67.624,116.154 67.005,116.601 65.596 C 116.905 64.641,116.927 64.638,118.420 65.410 M131.200 73.585 C 125.758 74.884,122.783 75.716,122.958 75.891 C 123.053 75.986,124.271 75.756,125.665 75.380 C 134.270 73.058,138.813 72.680,144.665 73.800 C 146.389 74.130,148.160 74.382,148.600 74.360 C 149.040 74.337,147.690 73.987,145.600 73.580 C 140.796 72.645,135.133 72.647,131.200 73.585 M150.800 75.000 C 152.626 75.703,153.345 75.693,151.800 74.986 C 151.140 74.683,150.330 74.442,150.000 74.448 C 149.670 74.455,150.030 74.703,150.800 75.000 M154.000 76.000 C 154.550 76.176,155.360 76.320,155.800 76.320 C 156.433 76.320,156.392 76.254,155.600 76.000 C 155.050 75.824,154.240 75.680,153.800 75.680 C 153.167 75.680,153.208 75.746,154.000 76.000 M116.600 77.386 C 115.022 78.108,115.379 78.120,117.600 77.421 C 118.590 77.109,119.040 76.850,118.600 76.845 C 118.160 76.840,117.260 77.083,116.600 77.386 M158.433 76.962 C 158.622 77.146,165.880 80.344,166.800 80.648 C 168.159 81.098,163.996 78.991,161.445 77.938 C 158.804 76.847,158.071 76.610,158.433 76.962 M113.000 78.778 C 112.120 79.195,111.580 79.536,111.800 79.538 C 112.346 79.542,115.502 78.064,115.000 78.040 C 114.780 78.030,113.880 78.362,113.000 78.778 M108.600 80.215 C 107.023 80.761,107.020 80.765,108.400 80.532 C 110.032 80.257,111.700 79.648,110.800 79.656 C 110.470 79.659,109.480 79.911,108.600 80.215 M103.800 81.774 C 101.182 83.035,101.580 83.052,104.600 81.808 C 105.920 81.264,106.730 80.817,106.400 80.815 C 106.070 80.812,104.900 81.244,103.800 81.774 M170.200 82.400 C 171.740 83.271,173.180 83.985,173.400 83.987 C 173.620 83.989,172.540 83.280,171.000 82.412 C 169.460 81.544,168.020 80.830,167.800 80.825 C 167.580 80.820,168.660 81.529,170.200 82.400 M99.400 83.622 C 98.520 84.038,98.070 84.376,98.400 84.373 C 98.730 84.369,99.630 84.022,100.400 83.600 C 102.196 82.617,101.492 82.632,99.400 83.622 M176.800 85.800 C 178.450 86.785,179.976 87.593,180.192 87.595 C 180.407 87.598,179.200 86.790,177.508 85.800 C 175.817 84.810,174.291 84.002,174.117 84.005 C 173.943 84.007,175.150 84.815,176.800 85.800 M94.000 85.800 C 90.595 87.583,91.136 87.583,94.856 85.800 C 96.463 85.030,97.513 84.409,97.189 84.419 C 96.865 84.430,95.430 85.051,94.000 85.800 M182.442 88.941 C 184.224 90.301,187.600 92.183,187.600 91.816 C 187.600 91.706,186.835 91.227,185.900 90.751 C 184.965 90.276,183.574 89.372,182.809 88.743 C 182.044 88.115,181.253 87.600,181.051 87.600 C 180.850 87.600,181.476 88.204,182.442 88.941 M188.800 92.956 C 189.961 94.272,193.411 96.688,196.000 97.999 C 196.990 98.500,199.870 100.265,202.400 101.922 C 211.037 107.577,210.769 107.413,209.400 106.211 C 208.740 105.632,207.712 104.896,207.115 104.576 C 206.518 104.257,204.049 102.691,201.627 101.097 C 199.206 99.504,195.824 97.394,194.113 96.408 C 192.401 95.423,190.280 93.988,189.400 93.220 C 188.152 92.130,188.020 92.072,188.800 92.956 M67.876 100.900 C 66.630 102.133,66.625 102.149,67.781 101.203 C 68.452 100.655,69.171 100.070,69.380 99.903 C 69.589 99.736,69.631 99.600,69.474 99.600 C 69.317 99.600,68.598 100.185,67.876 100.900 M56.360 111.100 C 54.292 113.245,51.816 115.990,50.858 117.200 L 49.116 119.400 51.250 117.000 C 52.423 115.680,54.180 113.790,55.155 112.800 C 58.293 109.611,60.515 107.200,60.315 107.200 C 60.208 107.200,58.429 108.955,56.360 111.100 M211.200 107.617 C 211.530 107.851,212.765 108.618,213.943 109.321 C 215.122 110.025,216.742 111.002,217.543 111.493 C 218.345 111.985,219.270 112.383,219.600 112.378 C 219.930 112.373,219.615 112.114,218.900 111.804 C 218.186 111.493,216.836 110.715,215.900 110.074 C 214.965 109.434,213.390 108.523,212.400 108.050 C 211.410 107.578,210.870 107.383,211.200 107.617 M223.381 114.029 C 225.131 114.893,226.841 115.587,227.181 115.572 C 227.522 115.556,227.165 115.310,226.388 115.023 C 225.612 114.737,224.043 114.030,222.902 113.452 C 221.760 112.873,220.686 112.413,220.513 112.429 C 220.341 112.445,221.632 113.165,223.381 114.029 M232.100 117.076 C 232.485 117.176,233.115 117.176,233.500 117.076 C 233.885 116.975,233.570 116.893,232.800 116.893 C 232.030 116.893,231.715 116.975,232.100 117.076 M289.905 118.283 C 290.402 118.379,291.122 118.375,291.505 118.275 C 291.887 118.175,291.480 118.096,290.600 118.101 C 289.720 118.105,289.407 118.187,289.905 118.283 M241.905 118.683 C 242.402 118.779,243.122 118.775,243.505 118.675 C 243.887 118.575,243.480 118.496,242.600 118.501 C 241.720 118.505,241.407 118.587,241.905 118.683 M293.824 119.798 C 294.549 120.567,295.506 122.142,295.950 123.298 C 296.395 124.454,296.764 125.130,296.770 124.800 C 296.800 123.334,293.752 118.400,292.817 118.400 C 292.646 118.400,293.099 119.029,293.824 119.798 M285.601 120.247 C 283.680 121.982,283.527 123.220,285.100 124.303 C 286.777 125.458,291.676 128.058,291.849 127.884 C 291.933 127.800,290.337 126.835,288.301 125.741 C 283.740 123.287,283.418 122.503,286.050 120.250 C 286.982 119.452,287.622 118.800,287.473 118.800 C 287.324 118.800,286.482 119.451,285.601 120.247 M250.200 120.179 C 252.180 120.710,254.070 121.144,254.400 121.142 C 255.364 121.137,250.233 119.704,248.333 119.448 C 247.380 119.319,248.220 119.648,250.200 120.179 M256.600 121.845 C 258.800 122.683,261.223 123.261,261.756 123.074 C 262.000 122.988,261.390 122.780,260.400 122.612 C 259.410 122.443,258.114 122.057,257.520 121.753 C 256.926 121.449,256.116 121.208,255.720 121.218 C 255.324 121.227,255.720 121.510,256.600 121.845 M46.775 123.283 C 45.497 124.965,44.828 126.106,44.830 126.600 C 44.831 126.820,45.117 126.460,45.465 125.800 C 45.813 125.140,46.409 124.240,46.789 123.800 C 47.170 123.360,47.608 122.775,47.764 122.500 C 48.291 121.569,47.756 121.993,46.775 123.283 M263.200 123.600 C 264.568 124.038,265.619 124.038,264.600 123.600 C 264.160 123.411,263.440 123.262,263.000 123.268 C 262.357 123.277,262.396 123.343,263.200 123.600 M265.600 124.102 C 265.923 124.428,270.949 126.385,271.093 126.241 C 271.165 126.168,270.364 125.745,269.312 125.300 C 267.194 124.405,265.291 123.790,265.600 124.102 M296.198 126.893 C 295.898 127.576,295.355 127.859,294.000 128.040 L 292.200 128.280 293.838 128.340 C 295.502 128.401,297.057 127.370,296.739 126.416 C 296.660 126.180,296.417 126.395,296.198 126.893 M271.600 126.520 C 271.600 126.792,276.493 128.441,276.695 128.238 C 276.781 128.152,275.895 127.767,274.726 127.382 C 273.557 126.998,272.375 126.600,272.100 126.499 C 271.825 126.397,271.600 126.407,271.600 126.520 M278.400 129.200 C 279.170 129.622,279.980 129.966,280.200 129.966 C 280.420 129.966,279.970 129.622,279.200 129.200 C 278.430 128.778,277.620 128.434,277.400 128.434 C 277.180 128.434,277.630 128.778,278.400 129.200 M42.442 130.735 C 41.759 131.799,41.200 132.825,41.200 133.013 C 41.200 133.298,42.277 131.726,43.745 129.300 C 44.622 127.849,43.501 129.084,42.442 130.735 M281.500 130.844 C 282.940 132.456,282.330 133.449,278.800 135.238 C 273.263 138.044,266.594 143.655,262.647 148.828 C 258.834 153.827,258.028 154.970,258.013 155.395 C 258.006 155.613,258.585 154.951,259.300 153.925 C 265.025 145.705,273.278 137.805,277.901 136.119 C 282.077 134.596,283.855 131.878,281.600 130.464 L 280.600 129.837 281.500 130.844 M39.267 138.667 C 38.764 140.107,38.421 141.354,38.504 141.438 C 38.588 141.521,39.071 140.414,39.578 138.978 C 40.085 137.541,40.428 136.295,40.340 136.207 C 40.253 136.119,39.769 137.226,39.267 138.667 M291.000 137.024 C 290.340 137.347,290.160 137.502,290.600 137.367 C 292.939 136.649,294.228 136.742,296.000 137.758 C 296.990 138.326,297.980 138.789,298.200 138.788 C 298.420 138.787,297.626 138.249,296.436 137.593 C 294.044 136.274,292.797 136.144,291.000 137.024 M285.500 139.429 C 284.005 140.240,284.096 140.578,285.600 139.800 C 286.260 139.459,286.800 139.094,286.800 138.990 C 286.800 138.732,286.757 138.747,285.500 139.429 M300.708 140.500 C 302.295 142.378,302.104 142.866,299.272 144.164 C 298.022 144.737,297.421 145.097,297.936 144.964 C 302.399 143.815,303.233 142.533,300.920 140.378 L 299.440 139.000 300.708 140.500 M280.819 142.228 C 277.877 143.909,272.806 148.279,270.731 150.920 C 269.660 152.284,267.918 154.433,266.860 155.696 C 264.984 157.935,261.533 164.845,261.016 167.400 C 260.882 168.060,261.197 167.520,261.716 166.200 C 263.626 161.340,265.691 157.533,267.719 155.131 C 268.864 153.777,270.571 151.703,271.513 150.524 C 273.354 148.221,278.851 143.638,281.300 142.364 C 282.125 141.935,282.800 141.497,282.800 141.392 C 282.800 141.104,282.741 141.129,280.819 142.228 M294.088 146.099 C 292.926 146.545,292.047 146.981,292.135 147.069 C 292.321 147.255,296.800 145.625,296.800 145.371 C 296.800 145.108,296.374 145.223,294.088 146.099 M309.400 146.777 C 306.296 147.069,300.239 148.522,299.409 149.174 C 299.184 149.351,298.280 149.721,297.400 149.997 C 286.197 153.510,275.007 165.845,272.179 177.800 C 270.195 186.189,272.714 200.704,277.392 207.844 C 280.320 212.313,288.398 220.366,291.580 221.990 C 292.559 222.489,294.283 223.511,295.414 224.262 C 303.217 229.443,322.207 232.267,330.000 229.406 C 330.990 229.042,332.485 228.574,333.323 228.365 C 335.385 227.851,341.345 224.963,342.706 223.818 C 343.311 223.308,344.435 222.613,345.203 222.273 C 350.098 220.105,358.085 209.338,359.963 202.377 C 362.442 193.190,362.408 190.035,359.710 178.800 C 355.228 160.136,331.045 144.744,309.400 146.777 M37.301 148.600 C 37.305 149.480,37.387 149.793,37.483 149.295 C 37.579 148.798,37.575 148.078,37.475 147.695 C 37.375 147.313,37.296 147.720,37.301 148.600 M288.776 148.519 C 285.658 150.409,283.200 152.075,283.200 152.299 C 283.200 152.405,283.695 152.162,284.300 151.759 C 284.905 151.356,286.824 150.165,288.564 149.113 C 290.304 148.061,291.553 147.200,291.340 147.200 C 291.127 147.200,289.974 147.794,288.776 148.519 M322.958 148.447 C 349.473 154.612,364.633 175.930,359.618 200.000 C 358.036 207.596,350.300 218.797,344.650 221.675 C 343.742 222.137,342.451 222.934,341.779 223.445 C 333.190 229.983,316.041 231.459,303.299 226.757 C 300.383 225.680,297.904 224.800,297.789 224.800 C 297.675 224.800,296.690 224.215,295.602 223.500 C 294.514 222.785,292.605 221.570,291.359 220.800 C 277.802 212.418,269.380 192.587,273.168 177.964 C 278.582 157.060,301.519 143.462,322.958 148.447 M281.364 153.722 C 280.685 154.425,279.622 155.450,279.002 156.000 C 277.375 157.444,272.400 163.239,272.400 163.690 C 272.400 163.900,273.137 163.139,274.038 162.000 C 274.939 160.860,277.279 158.323,279.238 156.362 C 282.305 153.292,283.158 152.321,282.700 152.422 C 282.645 152.434,282.044 153.019,281.364 153.722 M255.736 160.116 C 254.620 162.362,253.598 164.830,253.466 165.600 C 253.234 166.958,253.242 166.952,253.759 165.400 C 254.052 164.520,255.137 162.116,256.171 160.058 C 257.204 158.000,257.986 156.253,257.908 156.175 C 257.830 156.097,256.853 157.870,255.736 160.116 M36.120 158.800 C 36.120 160.010,36.195 160.505,36.287 159.900 C 36.378 159.295,36.378 158.305,36.287 157.700 C 36.195 157.095,36.120 157.590,36.120 158.800 M270.181 168.037 C 269.829 168.718,269.612 169.345,269.699 169.432 C 269.786 169.519,270.156 168.962,270.522 168.195 C 271.344 166.470,271.059 166.338,270.181 168.037 M252.282 169.882 C 251.901 171.335,251.660 172.593,251.746 172.679 C 251.831 172.765,252.221 171.655,252.612 170.212 C 253.002 168.769,253.244 167.510,253.148 167.415 C 253.053 167.320,252.663 168.430,252.282 169.882 M268.433 172.633 C 268.175 173.659,268.039 174.572,268.131 174.664 C 268.222 174.756,268.509 173.992,268.767 172.967 C 269.025 171.941,269.161 171.028,269.069 170.936 C 268.978 170.844,268.691 171.608,268.433 172.633 M36.101 172.600 C 36.105 173.480,36.187 173.793,36.283 173.295 C 36.379 172.798,36.375 172.078,36.275 171.695 C 36.175 171.313,36.096 171.720,36.101 172.600 M251.293 174.400 C 251.293 175.170,251.375 175.485,251.476 175.100 C 251.576 174.715,251.576 174.085,251.476 173.700 C 251.375 173.315,251.293 173.630,251.293 174.400 M267.239 177.192 C 266.998 178.318,266.818 179.546,266.840 179.920 C 266.862 180.294,267.133 179.446,267.441 178.035 C 267.750 176.624,267.929 175.396,267.840 175.307 C 267.751 175.218,267.481 176.066,267.239 177.192 M250.909 177.600 C 250.909 178.590,250.987 178.995,251.082 178.500 C 251.178 178.005,251.178 177.195,251.082 176.700 C 250.987 176.205,250.909 176.610,250.909 177.600 M258.114 180.600 C 258.117 181.700,258.195 182.103,258.287 181.495 C 258.379 180.886,258.377 179.986,258.282 179.495 C 258.187 179.003,258.111 179.500,258.114 180.600 M250.550 183.800 C 250.551 186.220,250.616 187.158,250.696 185.885 C 250.776 184.612,250.775 182.632,250.694 181.485 C 250.614 180.338,250.549 181.380,250.550 183.800 M37.293 181.600 C 37.293 182.370,37.375 182.685,37.476 182.300 C 37.576 181.915,37.576 181.285,37.476 180.900 C 37.375 180.515,37.293 180.830,37.293 181.600 M266.581 186.800 C 266.635 190.592,266.854 193.388,267.146 194.000 L 267.623 195.000 267.368 194.000 C 267.228 193.450,266.973 190.210,266.803 186.800 L 266.493 180.600 266.581 186.800 M136.800 184.420 C 137.790 184.597,139.140 184.732,139.800 184.720 C 140.685 184.705,140.528 184.616,139.200 184.380 C 138.210 184.203,136.860 184.068,136.200 184.080 C 135.315 184.095,135.472 184.184,136.800 184.420 M131.200 184.692 C 129.843 184.940,123.906 187.239,124.106 187.439 C 124.193 187.527,125.421 187.127,126.833 186.550 C 128.245 185.973,130.660 185.269,132.200 184.986 C 133.815 184.690,134.408 184.480,133.600 184.491 C 132.830 184.501,131.750 184.591,131.200 184.692 M142.800 185.358 C 144.392 185.843,147.583 187.182,150.328 188.515 C 154.438 190.510,155.021 194.452,151.400 195.764 C 150.520 196.083,150.031 196.356,150.313 196.372 C 155.225 196.642,155.232 190.474,150.322 188.116 C 146.546 186.302,143.760 185.201,142.490 185.021 C 141.093 184.822,141.112 184.843,142.800 185.358 M258.109 187.200 C 258.109 188.190,258.187 188.595,258.282 188.100 C 258.378 187.605,258.378 186.795,258.282 186.300 C 258.187 185.805,258.109 186.210,258.109 187.200 M250.893 189.600 C 250.893 190.370,250.975 190.685,251.076 190.300 C 251.176 189.915,251.176 189.285,251.076 188.900 C 250.975 188.515,250.893 188.830,250.893 189.600 M120.370 189.461 C 119.400 190.063,117.200 193.088,117.200 193.820 C 117.200 194.005,117.715 193.345,118.344 192.352 C 118.974 191.360,120.009 190.160,120.644 189.687 C 122.001 188.675,121.844 188.546,120.370 189.461 M308.200 190.006 C 300.523 190.720,295.390 196.497,295.414 204.400 C 295.435 211.549,298.006 215.472,304.967 218.973 L 308.751 220.876 312.715 220.738 C 316.401 220.610,316.894 220.490,319.770 219.030 C 336.237 210.665,327.295 188.231,308.200 190.006 M318.120 192.558 C 327.349 197.165,330.416 206.943,324.806 213.877 C 318.138 222.117,306.130 221.920,299.341 213.458 C 289.217 200.838,303.303 185.161,318.120 192.558 M131.400 191.762 C 123.895 194.145,122.010 198.131,126.557 202.000 C 129.085 204.150,129.276 204.015,126.900 201.758 C 118.303 193.590,137.389 187.337,147.463 195.021 C 148.169 195.559,148.974 196.000,149.252 196.000 C 149.951 196.000,146.306 193.721,143.400 192.341 C 140.681 191.049,134.572 190.754,131.400 191.762 M251.235 192.000 C 251.204 193.093,253.519 201.793,253.569 200.773 C 253.586 200.428,253.310 199.168,252.955 197.973 C 252.600 196.778,252.074 194.720,251.786 193.400 C 251.499 192.080,251.251 191.450,251.235 192.000 M215.500 194.293 C 216.435 194.377,217.965 194.377,218.900 194.293 C 219.835 194.209,219.070 194.140,217.200 194.140 C 215.330 194.140,214.565 194.209,215.500 194.293 M207.858 195.052 C 206.790 195.380,206.000 195.733,206.102 195.836 C 206.205 195.938,206.809 195.823,207.445 195.579 C 208.080 195.336,209.680 194.993,211.000 194.819 C 213.239 194.523,213.279 194.500,211.600 194.479 C 210.610 194.466,208.926 194.724,207.858 195.052 M222.300 194.682 C 222.795 194.778,223.605 194.778,224.100 194.682 C 224.595 194.587,224.190 194.509,223.200 194.509 C 222.210 194.509,221.805 194.587,222.300 194.682 M227.600 195.614 C 229.030 196.031,230.380 196.360,230.600 196.345 C 231.298 196.298,226.636 194.849,225.800 194.853 C 225.360 194.855,226.170 195.198,227.600 195.614 M267.680 195.800 C 267.680 196.240,267.824 197.050,268.000 197.600 C 268.254 198.392,268.320 198.433,268.320 197.800 C 268.320 197.360,268.176 196.550,268.000 196.000 C 267.746 195.208,267.680 195.167,267.680 195.800 M310.155 195.592 C 308.717 196.173,307.600 197.965,307.600 199.692 C 307.600 204.107,313.202 207.002,316.589 204.337 C 321.600 200.396,316.253 193.128,310.155 195.592 M30.200 196.746 C 28.560 197.762,24.868 201.814,20.838 207.022 C 13.270 216.802,13.052 223.938,20.191 228.180 C 24.886 230.969,28.000 229.760,30.056 224.350 C 30.887 222.163,31.802 220.854,35.691 216.290 C 38.358 213.159,38.501 212.379,37.048 208.888 C 36.120 206.659,35.170 203.776,33.823 199.104 C 33.437 197.762,32.848 196.640,32.407 196.404 C 31.458 195.896,31.612 195.872,30.200 196.746 M202.092 197.276 C 200.493 197.959,199.252 198.585,199.333 198.666 C 199.471 198.805,205.199 196.497,205.567 196.155 C 206.018 195.735,204.720 196.154,202.092 197.276 M315.160 196.580 C 319.002 198.566,317.990 204.400,313.804 204.400 C 308.975 204.400,306.484 198.707,310.384 196.585 C 311.717 195.859,313.764 195.857,315.160 196.580 M232.800 197.400 C 233.790 197.930,234.780 198.364,235.000 198.364 C 235.220 198.364,234.590 197.930,233.600 197.400 C 232.610 196.870,231.620 196.436,231.400 196.436 C 231.180 196.436,231.810 196.870,232.800 197.400 M260.244 198.200 C 260.573 199.671,260.802 199.990,260.794 198.967 C 260.791 198.545,260.605 197.930,260.382 197.600 C 260.085 197.162,260.048 197.324,260.244 198.200 M116.406 198.633 C 116.409 199.055,116.595 199.670,116.818 200.000 C 117.115 200.438,117.152 200.276,116.956 199.400 C 116.627 197.929,116.398 197.610,116.406 198.633 M212.000 199.250 C 210.790 199.446,208.957 199.965,207.926 200.403 C 206.895 200.841,205.695 201.200,205.259 201.200 C 202.410 201.200,196.555 205.557,191.498 211.440 C 185.174 218.796,184.765 234.705,190.662 243.924 C 194.311 249.629,204.039 257.199,209.210 258.358 C 210.198 258.579,211.725 259.073,212.603 259.455 C 215.767 260.833,227.197 260.418,232.600 258.729 C 244.731 254.938,253.706 242.550,253.078 230.464 C 252.062 210.888,232.398 195.946,212.000 199.250 M222.328 200.005 C 238.992 202.169,252.160 216.024,252.166 231.400 C 252.169 241.183,243.929 253.748,235.400 256.966 C 216.270 264.185,194.694 255.073,188.591 237.200 C 181.574 216.648,199.373 197.024,222.328 200.005 M32.378 203.600 C 32.872 205.250,33.709 207.613,34.238 208.850 C 35.571 211.969,35.545 212.067,32.392 215.734 C 30.847 217.530,28.939 220.277,28.152 221.837 C 26.022 226.060,24.166 226.876,20.962 224.999 C 19.213 223.974,19.034 223.683,18.581 221.124 C 17.823 216.842,19.124 213.844,24.535 207.400 C 25.274 206.520,26.162 205.251,26.509 204.579 C 27.316 203.014,30.780 199.808,31.177 200.257 C 31.344 200.446,31.884 201.950,32.378 203.600 M41.228 200.200 C 41.228 200.420,41.486 201.050,41.800 201.600 C 42.114 202.150,42.372 202.420,42.372 202.200 C 42.372 201.980,42.114 201.350,41.800 200.800 C 41.486 200.250,41.228 199.980,41.228 200.200 M195.800 200.481 C 191.746 202.794,183.200 213.290,183.200 215.956 C 183.200 216.269,183.785 215.416,184.500 214.061 C 187.341 208.678,192.222 203.051,196.242 200.524 C 197.213 199.913,196.856 199.878,195.800 200.481 M240.008 201.010 C 240.299 201.360,241.271 202.078,242.168 202.607 C 243.751 203.538,247.185 206.901,250.741 211.000 C 251.696 212.100,252.144 212.525,251.738 211.945 C 250.379 210.003,247.819 207.081,245.800 205.170 C 243.758 203.238,239.050 199.856,240.008 201.010 M253.629 202.000 C 253.567 203.384,258.516 213.039,261.611 217.568 C 265.765 223.648,271.466 229.579,277.000 233.578 C 278.443 234.621,276.858 233.142,273.600 230.406 C 265.456 223.566,258.032 213.012,254.184 202.800 C 253.894 202.030,253.644 201.670,253.629 202.000 M261.292 202.000 C 262.228 204.565,263.727 208.006,263.853 207.880 C 264.030 207.703,261.714 201.965,261.328 201.625 C 261.188 201.501,261.171 201.670,261.292 202.000 M118.683 203.528 C 119.504 205.049,123.976 209.157,125.880 210.139 C 127.998 211.233,127.943 210.876,125.800 209.625 C 123.733 208.418,119.885 204.954,118.662 203.200 C 118.044 202.313,118.046 202.350,118.683 203.528 M131.200 204.982 C 131.200 205.347,133.713 206.483,137.167 207.680 C 140.545 208.851,144.655 208.805,145.407 207.589 C 145.508 207.425,144.508 207.565,143.184 207.898 C 140.629 208.542,137.102 207.747,132.700 205.537 C 131.875 205.123,131.200 204.873,131.200 204.982 M147.110 208.402 C 150.475 210.454,149.002 213.855,144.352 214.768 C 142.955 215.043,142.838 215.121,143.774 215.156 C 146.778 215.268,150.023 212.364,149.229 210.275 C 148.838 209.249,146.998 207.599,146.246 207.601 C 146.001 207.602,146.389 207.962,147.110 208.402 M272.016 207.844 C 271.995 208.426,273.750 211.010,275.450 212.901 C 276.193 213.727,276.800 214.568,276.800 214.771 C 276.800 215.804,286.387 224.336,290.000 226.519 C 290.990 227.117,292.205 227.897,292.700 228.252 C 293.195 228.607,293.600 228.802,293.600 228.684 C 293.600 228.567,291.755 227.244,289.500 225.745 C 285.252 222.919,277.961 216.258,276.925 214.254 C 276.599 213.624,275.652 212.364,274.821 211.454 C 273.991 210.544,273.023 209.260,272.671 208.600 C 272.320 207.940,272.025 207.600,272.016 207.844 M264.001 208.676 C 264.001 208.938,264.870 210.288,265.933 211.676 C 266.997 213.064,268.106 214.650,268.398 215.200 C 269.076 216.478,272.752 220.817,273.800 221.578 C 274.240 221.897,275.230 222.811,276.000 223.610 C 280.573 228.351,291.251 235.043,296.200 236.271 C 297.347 236.555,293.280 234.621,291.488 234.029 C 286.197 232.283,271.115 219.738,268.763 215.127 C 268.341 214.300,267.479 213.032,266.849 212.311 C 266.218 211.590,265.320 210.370,264.853 209.600 C 264.385 208.830,264.002 208.414,264.001 208.676 M129.056 211.612 C 129.738 212.287,138.834 215.250,139.707 215.081 C 140.538 214.921,140.530 214.905,139.599 214.854 C 139.049 214.825,136.374 214.006,133.655 213.036 C 130.936 212.065,128.866 211.424,129.056 211.612 M253.208 215.000 C 253.205 215.220,253.592 216.030,254.068 216.800 C 254.544 217.570,255.271 219.010,255.683 220.000 C 256.193 221.226,256.353 221.418,256.184 220.602 C 255.931 219.380,253.216 214.271,253.208 215.000 M356.368 218.700 C 354.515 220.776,353.800 221.854,355.422 220.127 C 358.141 217.231,359.290 218.199,357.588 221.952 C 357.151 222.915,356.683 224.445,356.549 225.352 C 356.148 228.068,353.546 230.589,348.500 233.153 C 347.565 233.628,346.800 234.106,346.800 234.216 C 346.800 234.973,355.498 229.283,356.165 228.090 C 356.369 227.727,356.685 226.625,356.869 225.643 C 357.053 224.660,357.652 222.733,358.201 221.360 C 359.640 217.763,358.579 216.223,356.368 218.700 M182.218 220.218 C 182.065 221.239,182.022 222.155,182.122 222.255 C 182.222 222.355,182.429 221.602,182.582 220.582 C 182.735 219.561,182.778 218.645,182.678 218.545 C 182.578 218.445,182.371 219.198,182.218 220.218 M50.255 222.600 C 51.180 224.179,51.200 224.203,51.200 223.711 C 51.200 223.479,50.829 222.864,50.376 222.344 L 49.553 221.400 50.255 222.600 M256.456 222.400 C 256.456 222.730,256.611 223.360,256.800 223.800 C 257.017 224.304,257.144 224.378,257.144 224.000 C 257.144 223.670,256.989 223.040,256.800 222.600 C 256.583 222.096,256.456 222.022,256.456 222.400 M352.162 222.850 C 351.743 223.318,350.095 224.583,348.500 225.662 C 346.905 226.741,345.600 227.714,345.600 227.824 C 345.600 228.191,351.386 224.107,352.370 223.046 C 352.903 222.471,353.246 222.000,353.132 222.000 C 353.017 222.000,352.581 222.383,352.162 222.850 M181.456 223.684 C 181.321 224.188,181.238 226.040,181.271 227.800 L 181.332 231.000 181.592 227.000 C 181.869 222.748,181.847 222.224,181.456 223.684 M51.878 225.795 C 52.244 226.562,52.614 227.119,52.701 227.032 C 52.884 226.849,51.670 224.400,51.396 224.400 C 51.295 224.400,51.512 225.028,51.878 225.795 M257.744 231.600 C 257.744 233.690,257.812 234.545,257.894 233.500 C 257.976 232.455,257.976 230.745,257.894 229.700 C 257.812 228.655,257.744 229.510,257.744 231.600 M340.600 230.259 C 338.180 231.466,336.650 232.327,337.200 232.174 C 338.436 231.828,345.200 228.465,345.200 228.196 C 345.200 227.943,345.638 227.747,340.600 230.259 M217.566 230.122 C 205.317 234.722,210.049 252.800,223.503 252.800 C 236.359 252.800,239.511 236.679,227.821 230.708 C 225.756 229.653,219.731 229.309,217.566 230.122 M227.287 231.545 C 238.518 236.751,235.635 251.767,223.400 251.793 C 213.872 251.814,207.469 240.864,213.306 234.531 C 217.154 230.356,222.335 229.250,227.287 231.545 M299.200 231.200 C 299.970 231.622,300.780 231.966,301.000 231.966 C 301.220 231.966,300.770 231.622,300.000 231.200 C 299.230 230.778,298.420 230.434,298.200 230.434 C 297.980 230.434,298.430 230.778,299.200 231.200 M54.800 232.400 C 55.249 233.280,55.706 234.000,55.816 234.000 C 55.926 234.000,55.649 233.280,55.200 232.400 C 54.751 231.520,54.294 230.800,54.184 230.800 C 54.074 230.800,54.351 231.520,54.800 232.400 M181.687 232.000 C 181.683 232.550,181.824 233.450,182.000 234.000 C 182.431 235.344,182.431 233.892,182.000 232.200 C 181.726 231.122,181.694 231.102,181.687 232.000 M221.290 234.002 C 219.367 235.174,218.990 236.513,219.996 238.591 C 222.096 242.929,228.418 241.692,228.091 237.007 C 227.874 233.891,224.162 232.251,221.290 234.002 M226.031 235.169 C 228.999 238.137,224.977 242.276,221.822 239.500 C 220.268 238.133,220.069 236.295,221.337 235.027 C 222.759 233.604,224.519 233.658,226.031 235.169 M279.100 234.990 C 281.171 236.692,280.861 237.280,276.700 239.546 C 273.891 241.076,272.529 242.119,271.044 243.880 L 269.088 246.200 271.500 243.800 C 272.974 242.333,275.170 240.730,277.147 239.677 C 281.440 237.390,281.902 236.213,279.116 234.657 L 277.800 233.922 279.100 234.990 M310.100 234.276 C 310.485 234.376,311.115 234.376,311.500 234.276 C 311.885 234.175,311.570 234.093,310.800 234.093 C 310.030 234.093,309.715 234.175,310.100 234.276 M327.505 234.283 C 328.002 234.379,328.722 234.375,329.105 234.275 C 329.487 234.175,329.080 234.096,328.200 234.101 C 327.320 234.105,327.007 234.187,327.505 234.283 M314.100 234.676 C 314.485 234.776,315.115 234.776,315.500 234.676 C 315.885 234.575,315.570 234.493,314.800 234.493 C 314.030 234.493,313.715 234.575,314.100 234.676 M323.305 234.687 C 323.914 234.779,324.814 234.777,325.305 234.682 C 325.797 234.587,325.300 234.511,324.200 234.514 C 323.100 234.517,322.697 234.595,323.305 234.687 M318.105 235.087 C 318.714 235.179,319.614 235.177,320.105 235.082 C 320.597 234.987,320.100 234.911,319.000 234.914 C 317.900 234.917,317.497 234.995,318.105 235.087 M342.600 235.985 C 341.280 236.616,340.380 237.133,340.600 237.135 C 341.133 237.140,345.914 234.864,345.400 234.850 C 345.180 234.844,343.920 235.355,342.600 235.985 M298.000 237.000 C 298.550 237.314,299.180 237.572,299.400 237.572 C 299.620 237.572,299.350 237.314,298.800 237.000 C 298.250 236.686,297.620 236.428,297.400 236.428 C 297.180 236.428,297.450 236.686,298.000 237.000 M302.600 238.400 C 303.040 238.589,303.760 238.738,304.200 238.732 C 304.843 238.723,304.804 238.657,304.000 238.400 C 302.632 237.962,301.581 237.962,302.600 238.400 M183.223 239.000 C 183.211 239.795,186.081 245.434,186.886 246.200 C 187.118 246.420,186.623 245.358,185.786 243.841 C 184.950 242.324,184.033 240.434,183.750 239.641 C 183.437 238.765,183.230 238.514,183.223 239.000 M328.600 240.000 L 327.000 240.286 328.400 240.315 C 329.170 240.331,330.160 240.189,330.600 240.000 C 331.543 239.595,330.862 239.595,328.600 240.000 M310.500 240.276 C 310.885 240.376,311.515 240.376,311.900 240.276 C 312.285 240.175,311.970 240.093,311.200 240.093 C 310.430 240.093,310.115 240.175,310.500 240.276 M316.700 240.698 C 318.515 240.772,321.485 240.772,323.300 240.698 C 325.115 240.623,323.630 240.563,320.000 240.563 C 316.370 240.563,314.885 240.623,316.700 240.698 M254.682 245.011 C 254.092 246.215,253.694 247.200,253.798 247.200 C 254.067 247.200,256.084 243.151,255.905 242.971 C 255.823 242.889,255.273 243.807,254.682 245.011 M341.000 244.000 C 339.240 244.626,337.993 245.151,338.230 245.169 C 338.466 245.186,339.983 244.750,341.600 244.200 C 346.429 242.558,348.818 244.114,351.047 250.351 C 351.379 251.280,351.571 251.506,351.582 250.982 C 351.599 250.193,348.594 244.939,347.304 243.500 C 346.434 242.531,344.761 242.663,341.000 244.000 M61.564 244.333 C 61.780 244.736,62.271 245.321,62.655 245.633 C 63.087 245.984,62.990 245.704,62.401 244.900 C 61.351 243.465,60.957 243.198,61.564 244.333 M298.701 245.756 C 298.395 246.062,297.378 247.582,296.440 249.133 C 295.503 250.684,294.121 252.423,293.368 252.997 C 291.619 254.331,291.583 255.675,293.235 257.921 C 293.914 258.845,294.559 259.600,294.669 259.600 C 294.779 259.600,294.314 258.845,293.635 257.921 C 291.997 255.695,292.025 254.381,293.738 253.075 C 294.473 252.513,295.849 250.775,296.793 249.211 C 297.738 247.647,298.887 246.105,299.345 245.784 C 299.803 245.463,299.971 245.200,299.718 245.200 C 299.464 245.200,299.007 245.450,298.701 245.756 M335.400 245.600 C 334.381 246.038,335.432 246.038,336.800 245.600 C 337.604 245.343,337.643 245.277,337.000 245.268 C 336.560 245.262,335.840 245.411,335.400 245.600 M268.446 247.639 C 268.201 248.343,268.012 249.208,268.027 249.560 C 268.041 249.912,268.304 249.397,268.609 248.416 C 269.249 246.362,269.115 245.722,268.446 247.639 M307.300 246.676 C 307.685 246.776,308.315 246.776,308.700 246.676 C 309.085 246.575,308.770 246.493,308.000 246.493 C 307.230 246.493,306.915 246.575,307.300 246.676 M187.411 247.200 C 189.303 250.552,195.392 256.467,199.500 258.946 C 200.714 259.678,199.842 258.800,198.316 257.754 C 195.545 255.854,190.942 251.545,189.234 249.250 C 187.552 246.990,186.841 246.192,187.411 247.200 M377.600 247.400 C 376.273 248.158,373.221 249.019,369.889 249.575 C 363.823 250.587,363.654 251.449,368.073 258.867 C 369.034 260.480,370.086 262.323,370.410 262.962 C 372.511 267.101,383.428 264.160,386.255 258.694 C 389.371 252.668,382.979 244.327,377.600 247.400 M317.916 247.897 C 319.299 247.975,321.459 247.974,322.716 247.895 C 323.972 247.816,322.840 247.752,320.200 247.753 C 317.560 247.753,316.532 247.818,317.916 247.897 M251.954 250.100 C 251.692 250.595,250.026 252.530,248.249 254.400 L 245.020 257.800 248.231 254.688 C 251.040 251.965,253.260 249.200,252.637 249.200 C 252.522 249.200,252.215 249.605,251.954 250.100 M381.978 249.988 C 383.750 250.937,384.617 256.127,383.318 258.011 C 382.350 259.416,381.735 259.816,378.800 260.948 C 374.343 262.668,373.489 262.544,372.193 259.987 C 371.632 258.879,370.541 256.985,369.768 255.778 C 368.110 253.184,368.174 252.994,370.907 252.396 C 372.058 252.145,374.440 251.440,376.200 250.830 C 379.782 249.588,380.921 249.422,381.978 249.988 M351.246 252.667 C 351.169 254.110,345.193 265.413,342.872 268.506 C 341.678 270.098,341.101 271.041,341.590 270.602 C 344.039 268.406,351.883 254.113,351.489 252.568 C 351.314 251.885,351.288 251.896,351.246 252.667 M312.291 253.700 C 311.766 254.195,309.911 256.143,308.168 258.030 C 305.422 261.002,305.545 260.909,309.084 257.330 C 313.226 253.142,313.925 252.752,315.726 253.622 C 316.570 254.030,316.574 254.023,315.824 253.422 C 314.729 252.545,313.404 252.649,312.291 253.700 M268.400 254.326 C 268.400 255.821,274.122 259.611,275.021 258.712 C 275.114 258.619,274.195 258.229,272.979 257.846 C 271.242 257.298,270.514 256.799,269.584 255.515 C 268.933 254.616,268.400 254.081,268.400 254.326 M316.432 255.211 C 316.393 256.435,315.492 257.721,311.700 261.962 C 310.105 263.746,308.800 265.527,308.800 265.921 C 308.800 266.728,311.123 273.638,311.170 272.970 C 311.186 272.734,310.750 271.217,310.200 269.600 C 308.821 265.547,308.771 265.712,312.809 261.146 C 316.281 257.221,317.117 255.829,316.671 254.717 C 316.557 254.433,316.449 254.655,316.432 255.211 M243.093 258.614 C 242.272 259.172,241.600 259.715,241.600 259.820 C 241.600 259.925,242.320 259.535,243.200 258.953 C 244.597 258.028,245.070 257.600,244.693 257.600 C 244.634 257.600,243.914 258.056,243.093 258.614 M285.331 257.957 C 287.015 258.224,290.028 261.415,291.607 264.600 C 292.043 265.480,292.400 265.910,292.400 265.556 C 292.401 263.471,287.075 257.585,285.251 257.657 L 283.800 257.714 285.331 257.957 M276.700 259.089 C 277.415 259.178,278.585 259.178,279.300 259.089 C 280.015 259.001,279.430 258.928,278.000 258.928 C 276.570 258.928,275.985 259.001,276.700 259.089 M74.200 261.600 C 75.059 262.480,75.852 263.200,75.962 263.200 C 76.072 263.200,75.459 262.480,74.600 261.600 C 73.741 260.720,72.948 260.000,72.838 260.000 C 72.728 260.000,73.341 260.720,74.200 261.600 M239.600 260.800 C 238.830 261.222,238.344 261.574,238.520 261.583 C 238.944 261.605,241.200 260.432,241.200 260.190 C 241.200 259.928,241.177 259.937,239.600 260.800 M295.435 261.159 C 297.228 264.928,301.330 265.417,304.015 262.182 C 304.323 261.810,303.691 262.067,302.610 262.753 C 299.352 264.819,297.815 264.359,295.294 260.562 C 295.016 260.143,295.080 260.412,295.435 261.159 M206.000 262.200 C 206.550 262.514,207.180 262.772,207.400 262.772 C 207.620 262.772,207.350 262.514,206.800 262.200 C 206.250 261.886,205.620 261.628,205.400 261.628 C 205.180 261.628,205.450 261.886,206.000 262.200 M355.229 263.054 C 353.054 265.819,356.320 268.880,358.800 266.400 C 359.799 265.401,359.799 264.932,358.804 263.300 C 357.807 261.664,356.398 261.567,355.229 263.054 M213.300 264.276 C 213.685 264.376,214.315 264.376,214.700 264.276 C 215.085 264.175,214.770 264.093,214.000 264.093 C 213.230 264.093,212.915 264.175,213.300 264.276 M219.100 264.697 C 220.695 264.773,223.305 264.773,224.900 264.697 C 226.495 264.621,225.190 264.559,222.000 264.559 C 218.810 264.559,217.505 264.621,219.100 264.697 M264.662 265.931 C 263.976 266.690,263.818 267.860,264.250 268.986 C 264.507 269.655,267.968 271.603,268.887 271.596 C 269.169 271.594,268.414 271.133,267.209 270.572 C 264.769 269.437,264.415 269.058,264.406 267.580 C 264.393 265.347,265.894 265.092,270.107 266.611 C 271.649 267.168,272.981 267.553,273.066 267.467 C 273.328 267.206,267.340 265.200,266.299 265.200 C 265.763 265.200,265.026 265.529,264.662 265.931 M291.681 267.218 C 291.413 267.648,290.805 268.000,290.330 268.000 C 289.855 268.000,289.578 268.112,289.715 268.248 C 290.147 268.680,291.901 268.034,292.165 267.346 C 292.534 266.386,292.249 266.310,291.681 267.218 M82.200 270.400 C 83.950 272.160,85.471 273.600,85.581 273.600 C 85.691 273.600,84.350 272.160,82.600 270.400 C 80.850 268.640,79.329 267.200,79.219 267.200 C 79.109 267.200,80.450 268.640,82.200 270.400 M277.200 268.402 C 279.032 268.747,282.670 268.922,282.367 268.651 C 282.275 268.570,280.670 268.404,278.800 268.283 C 276.330 268.124,275.892 268.157,277.200 268.402 M287.105 268.683 C 287.602 268.779,288.322 268.775,288.705 268.675 C 289.087 268.575,288.680 268.496,287.800 268.501 C 286.920 268.505,286.607 268.587,287.105 268.683 M300.000 269.968 C 298.790 270.589,295.910 271.496,293.600 271.983 C 287.578 273.253,286.881 274.244,289.538 277.763 C 290.384 278.883,291.332 280.184,291.643 280.653 C 296.298 287.663,307.762 286.306,306.971 278.839 C 306.049 270.132,304.218 267.802,300.000 269.968 M304.127 271.100 C 306.385 275.636,306.723 281.250,304.832 282.829 C 300.807 286.191,295.238 284.352,291.219 278.333 C 288.608 274.424,288.735 274.239,295.128 272.618 C 297.371 272.050,299.790 271.229,300.503 270.794 C 302.332 269.678,303.467 269.774,304.127 271.100 M270.600 272.000 C 271.260 272.168,272.250 272.305,272.800 272.305 C 273.692 272.305,273.670 272.272,272.600 272.000 C 271.940 271.832,270.950 271.695,270.400 271.695 C 269.508 271.695,269.530 271.728,270.600 272.000 M339.719 272.626 C 336.139 277.738,325.743 288.236,317.200 295.363 C 309.719 301.605,309.326 301.909,304.700 305.042 C 302.555 306.494,300.800 307.775,300.800 307.887 C 300.800 308.107,301.106 307.913,305.431 304.944 C 311.390 300.852,316.439 296.787,324.154 289.869 C 330.748 283.956,341.886 271.600,340.622 271.600 C 340.520 271.600,340.114 272.062,339.719 272.626 M276.900 273.076 C 277.285 273.176,277.915 273.176,278.300 273.076 C 278.685 272.975,278.370 272.893,277.600 272.893 C 276.830 272.893,276.515 272.975,276.900 273.076 M279.600 273.481 C 281.026 274.000,282.907 276.254,287.174 282.553 C 288.795 284.946,294.040 289.209,295.346 289.195 C 295.596 289.193,295.041 288.756,294.112 288.225 C 291.789 286.897,288.885 284.449,287.857 282.953 C 282.573 275.264,280.811 273.176,279.653 273.232 C 279.109 273.258,279.100 273.299,279.600 273.481 M86.400 274.925 C 86.400 274.994,86.985 275.579,87.700 276.225 L 89.000 277.400 87.825 276.100 C 86.730 274.888,86.400 274.616,86.400 274.925 M91.400 279.600 C 92.706 280.920,93.865 282.000,93.975 282.000 C 94.085 282.000,93.106 280.920,91.800 279.600 C 90.494 278.280,89.335 277.200,89.225 277.200 C 89.115 277.200,90.094 278.280,91.400 279.600 M312.073 280.200 C 311.966 284.224,311.211 285.499,308.000 287.079 C 304.952 288.578,305.028 288.820,308.118 287.453 C 311.611 285.909,312.604 284.043,312.299 279.600 C 312.154 277.492,312.145 277.517,312.073 280.200 M100.000 287.000 C 100.746 287.770,101.447 288.400,101.557 288.400 C 101.667 288.400,101.146 287.770,100.400 287.000 C 99.654 286.230,98.953 285.600,98.843 285.600 C 98.733 285.600,99.254 286.230,100.000 287.000 M104.200 290.400 C 105.059 291.280,105.852 292.000,105.962 292.000 C 106.072 292.000,105.459 291.280,104.600 290.400 C 103.741 289.520,102.948 288.800,102.838 288.800 C 102.728 288.800,103.341 289.520,104.200 290.400 M299.105 289.883 C 299.602 289.979,300.322 289.975,300.705 289.875 C 301.087 289.775,300.680 289.696,299.800 289.701 C 298.920 289.705,298.607 289.787,299.105 289.883 M219.705 305.087 C 220.314 305.179,221.214 305.177,221.705 305.082 C 222.197 304.987,221.700 304.911,220.600 304.914 C 219.500 304.917,219.097 304.995,219.705 305.087 M223.200 305.586 C 223.530 305.832,225.007 306.654,226.482 307.413 C 227.957 308.172,230.046 309.559,231.124 310.496 C 236.204 314.913,246.173 321.961,246.656 321.477 C 246.734 321.399,245.586 320.629,244.105 319.767 C 241.525 318.266,233.840 312.514,230.710 309.740 C 229.890 309.014,227.910 307.742,226.310 306.913 C 223.114 305.258,222.286 304.905,223.200 305.586 M212.453 307.870 C 210.201 309.645,208.387 313.971,208.462 317.389 L 208.524 320.200 208.786 317.000 C 209.097 313.202,210.479 310.082,212.728 308.106 C 214.504 306.544,214.328 306.393,212.453 307.870 M296.764 310.200 C 294.936 311.410,293.597 312.400,293.790 312.400 C 294.106 312.400,299.250 309.119,300.180 308.325 C 301.268 307.395,299.713 308.249,296.764 310.200 M217.383 311.145 C 209.179 316.148,215.345 330.606,228.509 337.232 C 230.659 338.315,232.610 339.200,232.844 339.200 C 233.079 339.200,234.740 339.847,236.535 340.637 C 239.469 341.929,244.587 343.440,251.400 345.025 C 260.135 347.057,266.756 343.384,266.791 336.487 C 266.812 332.397,265.560 331.226,260.716 330.806 C 251.115 329.972,243.695 326.434,232.194 317.208 C 224.300 310.876,220.425 309.290,217.383 311.145 M290.200 313.857 C 287.506 315.460,287.315 315.600,287.833 315.600 C 288.035 315.600,289.370 314.880,290.800 314.000 C 292.230 313.120,293.220 312.407,293.000 312.415 C 292.780 312.423,291.520 313.072,290.200 313.857 M221.789 313.646 C 223.426 314.100,227.354 316.672,230.238 319.177 C 235.736 323.954,241.757 328.006,245.200 329.248 C 246.850 329.843,249.660 330.869,251.445 331.529 C 253.841 332.414,255.756 332.804,258.762 333.017 C 263.239 333.334,264.029 333.889,263.981 336.680 C 263.894 341.727,258.657 343.637,250.400 341.631 C 248.530 341.177,246.353 340.804,245.563 340.803 C 241.608 340.795,228.186 334.515,223.257 330.366 C 217.348 325.393,214.773 315.755,218.808 313.714 C 220.014 313.103,219.850 313.107,221.789 313.646 M283.200 317.400 C 281.330 318.368,279.980 319.160,280.200 319.160 C 280.420 319.160,282.130 318.368,284.000 317.400 C 285.870 316.432,287.220 315.640,287.000 315.640 C 286.780 315.640,285.070 316.432,283.200 317.400 M273.600 321.634 C 271.290 322.711,269.670 323.582,270.000 323.570 C 270.670 323.546,278.831 319.667,278.200 319.673 C 277.980 319.675,275.910 320.557,273.600 321.634 M158.000 321.000 C 158.550 321.314,159.180 321.572,159.400 321.572 C 159.620 321.572,159.350 321.314,158.800 321.000 C 158.250 320.686,157.620 320.428,157.400 320.428 C 157.180 320.428,157.450 320.686,158.000 321.000 M208.848 320.800 C 208.842 321.130,209.083 321.940,209.386 322.600 C 210.093 324.145,210.103 323.426,209.400 321.600 C 209.103 320.830,208.855 320.470,208.848 320.800 M247.899 322.214 C 249.130 323.076,252.083 324.383,252.800 324.382 C 253.130 324.381,252.338 323.944,251.040 323.411 C 249.743 322.877,248.492 322.252,248.260 322.020 C 248.029 321.789,247.656 321.600,247.431 321.600 C 247.206 321.600,247.416 321.876,247.899 322.214 M161.600 322.600 C 162.150 322.914,162.780 323.172,163.000 323.172 C 163.220 323.172,162.950 322.914,162.400 322.600 C 161.850 322.286,161.220 322.028,161.000 322.028 C 160.780 322.028,161.050 322.286,161.600 322.600 M210.198 324.800 C 210.658 326.345,211.539 328.400,211.741 328.400 C 211.952 328.400,210.436 324.300,210.115 324.000 C 209.997 323.890,210.035 324.250,210.198 324.800 M255.000 325.011 C 255.880 325.301,257.050 325.537,257.600 325.535 C 258.150 325.533,257.610 325.285,256.400 324.983 C 253.650 324.297,252.879 324.312,255.000 325.011 M265.522 324.611 C 265.406 324.728,264.521 324.978,263.555 325.168 C 262.193 325.435,262.069 325.515,263.000 325.526 C 264.244 325.540,267.488 324.484,266.367 324.430 C 266.018 324.414,265.638 324.495,265.522 324.611 M259.505 325.883 C 260.002 325.979,260.722 325.975,261.105 325.875 C 261.487 325.775,261.080 325.696,260.200 325.701 C 259.320 325.705,259.007 325.787,259.505 325.883 M212.373 330.600 C 212.202 331.787,212.166 331.803,209.200 332.028 L 206.200 332.256 209.051 332.328 C 212.175 332.407,212.984 331.963,212.704 330.322 C 212.567 329.522,212.523 329.558,212.373 330.600 " stroke="none" fill="#80775f" fill-rule="evenodd"></path></g></svg>